<?xml version="1.0" encoding="utf-8"?>
<!-- Generator: Adobe Illustrator 24.1.2, SVG Export Plug-In . SVG Version: 6.00 Build 0)  -->
<svg version="1.1" id="Layer_1" xmlns="http://www.w3.org/2000/svg" xmlns:xlink="http://www.w3.org/1999/xlink" x="0px" y="0px"
	 viewBox="0 0 100 100" style="enable-background:new 0 0 100 100;" xml:space="preserve">
<style type="text/css">
	.st0{fill-rule:evenodd;clip-rule:evenodd;fill:#2E1E11;}
	.st1{fill-rule:evenodd;clip-rule:evenodd;fill:#E4AE7C;}
	.st2{fill-rule:evenodd;clip-rule:evenodd;fill:#D67F54;}
	.st3{fill-rule:evenodd;clip-rule:evenodd;fill:#AF2A3A;}
	.st4{fill-rule:evenodd;clip-rule:evenodd;fill:#39271F;}
	.st5{fill-rule:evenodd;clip-rule:evenodd;fill:#20201E;}
	.st6{fill-rule:evenodd;clip-rule:evenodd;fill:#DA9077;}
	.st7{fill-rule:evenodd;clip-rule:evenodd;fill:#3F2716;}
	.st8{fill-rule:evenodd;clip-rule:evenodd;fill:#FFFFFF;}
	.st9{fill-rule:evenodd;clip-rule:evenodd;fill:#27170C;}
	.st10{fill-rule:evenodd;clip-rule:evenodd;fill:#7E583E;}
	.st11{fill-rule:evenodd;clip-rule:evenodd;fill:#4C3124;}
	.st12{fill-rule:evenodd;clip-rule:evenodd;fill:#4E2C0B;}
	.st13{fill-rule:evenodd;clip-rule:evenodd;fill:#462917;}
	.st14{fill-rule:evenodd;clip-rule:evenodd;fill:#623A1C;}
	.st15{fill-rule:evenodd;clip-rule:evenodd;fill:#774D30;}
	.st16{fill-rule:evenodd;clip-rule:evenodd;fill:#4E3832;}
	.st17{fill-rule:evenodd;clip-rule:evenodd;fill:#F1D3A4;}
	.st18{fill-rule:evenodd;clip-rule:evenodd;fill:#35253D;}
	.st19{fill-rule:evenodd;clip-rule:evenodd;fill:#23142B;}
	.st20{fill-rule:evenodd;clip-rule:evenodd;fill:#DDBA8A;}
	.st21{fill-rule:evenodd;clip-rule:evenodd;fill:#58556C;}
	.st22{fill-rule:evenodd;clip-rule:evenodd;fill:#67627E;}
	.st23{fill-rule:evenodd;clip-rule:evenodd;fill:#383546;}
	.st24{fill-rule:evenodd;clip-rule:evenodd;fill:#432D4C;}
	.st25{fill-rule:evenodd;clip-rule:evenodd;fill:#575756;}
	.st26{fill-rule:evenodd;clip-rule:evenodd;fill:#784928;}
	.st27{fill-rule:evenodd;clip-rule:evenodd;fill:#231A11;}
	.st28{fill-rule:evenodd;clip-rule:evenodd;fill:#D57B19;}
	.st29{fill-rule:evenodd;clip-rule:evenodd;fill:#3A2100;}
	.st30{fill-rule:evenodd;clip-rule:evenodd;fill:#BB495C;}
	.st31{fill-rule:evenodd;clip-rule:evenodd;fill:#88342A;}
	.st32{fill-rule:evenodd;clip-rule:evenodd;fill:#B4283F;}
	.st33{fill-rule:evenodd;clip-rule:evenodd;fill:#7C5032;}
</style>
<g>
	<g>
		<path class="st0" d="M506.7-86.6c2.1,11,4.9,16.2,5.2,22.3c0.3,6.4-9.2,12.7-13.7,14.7c5.6,16.8,17.4,14.9,25,15.7
			c7.7,0.7,3.9,12.2,24.2,11.3l9.7-69.5L506.7-86.6L506.7-86.6z M568.6-85l7.3,62.4c20.3,0.9,16.6-10.6,24.2-11.3
			c7.7-0.7,19.4,1.1,25-15.7c-4.6-2-14-8.3-13.7-14.7c0.3-6.1,2.8-10.8,5-20.6l-12-4.9L568.6-85z"/>
		<path class="st1" d="M522.6-78c-0.2-1.9-7.9-4.1-10.5,2.1c-2.6,6.2,2.1,15,10.9,15.7c8.8,0.7,6.2-0.9,6.2-0.9L522.6-78z"/>
		<path class="st1" d="M601-78c0.2-1.9,7.9-4.1,10.5,2.1c2.6,6.2-2.1,15-10.9,15.7c-8.8,0.7-6.2-0.9-6.2-0.9L601-78z"/>
		<path class="st1" d="M561.7,43h-71c-0.8-36.3,27.1-57.4,51.1-65.2c1.9-10.1,1.4-23.3,1.4-23.3h18.4h18.5c0,0-0.5,13.1,1.4,23.3
			c24,7.9,51.9,28.9,51.1,65.2H561.7z"/>
		<path class="st2" d="M580.1-45.5c0,0-0.1,2.6,0,6.4c-7,17.6-28.8,19.6-36.8,0.7c0.1-4.2,0-7.1,0-7.1
			C555.5-45.5,567.8-45.5,580.1-45.5z"/>
		<path class="st3" d="M635.1,43c0.8-35.8-27.3-56.8-51.9-64.9c-4.9,10.9-37.9,10.9-42.8-0.1c-24.6,8-52.9,29.1-52.1,65L635.1,43
			L635.1,43z"/>
		<path class="st4" d="M634.2,30.9c-1.2-7-3.6-13.4-6.8-19.1H496c-3.3,5.7-5.6,12-6.8,19.1H634.2z"/>
		<path class="st4" d="M610.8-7.2c-8.5-6.8-18.3-11.7-27.6-14.7c-4.9,10.9-37.9,10.9-42.8-0.1c-9.3,3-19.2,7.9-27.8,14.8L610.8-7.2
			L610.8-7.2z"/>
		<path class="st1" d="M561.7-36.2c-45.8,1.1-68.9-111.8,0-108.9C630.6-147.9,607.5-35.1,561.7-36.2z"/>
		<path class="st5" d="M546.3-90.6c1.8,1.3,2.3,3.9,0.9,5.7c-1.3,1.8-3.9,2.2-5.7,0.9c-1.8-1.3-2.3-3.9-0.9-5.7
			C541.9-91.6,544.5-92,546.3-90.6z"/>
		<path class="st5" d="M577.3-90.6c-1.8,1.3-2.3,3.9-0.9,5.7c1.3,1.8,3.9,2.2,5.7,0.9c1.8-1.3,2.3-3.9,0.9-5.7
			C581.7-91.6,579.2-92,577.3-90.6z"/>
		<path class="st6" d="M541.3-75.8c2.3,1.8,2.4,4.4,0.2,5.9c-2.2,1.4-5.9,1.2-8.2-0.6c-2.3-1.8-2.4-4.4-0.2-5.9
			C535.2-77.8,538.9-77.6,541.3-75.8z"/>
		<path class="st6" d="M582.4-75.8c-2.3,1.8-2.4,4.4-0.2,5.9c2.2,1.4,5.9,1.2,8.2-0.6c2.3-1.8,2.4-4.4,0.2-5.9
			C588.4-77.8,584.7-77.6,582.4-75.8z"/>
		<path class="st7" d="M548.1-101.8c-0.2-0.1-0.3-0.1-0.5-0.2c-1.8-0.6-3.3-0.8-5.2-0.7c-1.9,0.2-3.3,0.6-4.9,1.5
			c-0.7,0.5-3.6,2.8-2.8,3.7c0.3,0.1,3.2-1.4,4.1-1.7c1.3-0.4,2.4-0.5,3.8-0.5c1.3,0.1,2.3,0.2,3.5,0.7c0,0,0.2,0.1,0.3,0.1
			c2.4,1.2,2.2,1.9,3.8,0.8C552.7-99.3,550.1-100.8,548.1-101.8z"/>
		<path class="st7" d="M575.3-101.8c0.2-0.1,0.3-0.1,0.5-0.2c1.8-0.6,3.3-0.8,5.2-0.7c1.9,0.2,3.3,0.6,4.9,1.5
			c0.7,0.5,3.6,2.8,2.8,3.7c-0.3,0.1-3.2-1.4-4.1-1.7c-1.3-0.4-2.4-0.5-3.8-0.5c-1.3,0.1-2.3,0.2-3.5,0.7c0,0-0.2,0.1-0.3,0.1
			c-2.4,1.2-2.2,1.9-3.8,0.8C570.7-99.3,573.3-100.8,575.3-101.8z"/>
		<path class="st8" d="M549.8-66.2c4.2-0.1,8.4-0.1,12.6-0.1c4.2,0,8.4,0,12.6,0.1c0,6.6-6.5,9-12.6,9l0,0l0,0
			C556.3-57.2,549.8-59.6,549.8-66.2z"/>
		<path class="st2" d="M559.5-53.3c-0.2-0.1-0.3-0.4-0.2-0.7s0.4-0.3,0.7-0.2c0.7,0.4,1.6,0.6,2.4,0.6c0.9,0,1.7-0.2,2.4-0.6
			c0.2-0.1,0.5-0.1,0.7,0.2c0.1,0.2,0.1,0.5-0.2,0.7c-0.8,0.5-1.9,0.7-2.9,0.7C561.4-52.5,560.4-52.8,559.5-53.3z"/>
		<path class="st2" d="M561.3-75.3c-0.3,0-0.5-0.2-0.5-0.5c0-0.3,0.2-0.5,0.5-0.5c1.2,0,2.6,0,3.7-0.2c0.9-0.2,1.6-0.4,1.6-0.8
			c0-1.4-1.4-10.3-1.5-10.3c0-0.3,0.1-0.5,0.4-0.6c0.3,0,0.5,0.1,0.6,0.4c0,0,1.5,9,1.5,10.5c0,1-1,1.6-2.4,1.8
			C564-75.3,562.5-75.3,561.3-75.3z"/>
		<path class="st2" d="M608.7-71c0,0.3-0.2,0.5-0.5,0.5c-0.3,0-0.5-0.2-0.5-0.5c0-1.5-0.3-2.5-0.7-3c-0.3-0.3-0.6-0.5-0.9-0.5
			c-0.4,0-0.9,0.1-1.4,0.4c-1.3,0.7-2.6,2.3-3.4,4c-0.4,0.8-0.7,1.7-0.8,2.3c0.8-0.5,1.6-0.7,2.3-0.7c0.4,0,0.8,0.2,1.1,0.4
			c0.3,0.2,0.5,0.5,0.7,0.9c0.2,0.7,0,1.6-0.7,2.7c-0.2,0.2-0.5,0.3-0.7,0.1s-0.3-0.5-0.1-0.7c0.5-0.8,0.7-1.4,0.6-1.9
			c-0.1-0.2-0.2-0.3-0.3-0.4c-0.2-0.1-0.4-0.2-0.6-0.2c-0.6-0.1-1.4,0.2-2.1,0.9c-0.2,0.2-0.3,0.3-0.5,0.3c-0.4,0.1-0.6-0.1-0.7-0.5
			l0,0c0-0.1,0-0.3,0-0.6c0.1-0.7,0.5-2,1.1-3.1c0.8-1.9,2.3-3.6,3.8-4.5c0.6-0.4,1.3-0.6,1.9-0.5c0.6,0,1.2,0.3,1.7,0.8
			C608.3-73.9,608.7-72.8,608.7-71z"/>
		<path class="st2" d="M515.7-71c0,0.3-0.2,0.5-0.5,0.5c-0.3,0-0.5-0.2-0.5-0.5c0-1.8,0.3-2.9,0.9-3.6c0.5-0.6,1-0.8,1.7-0.8
			c0.6,0,1.2,0.2,1.9,0.5c1.5,0.8,3,2.6,3.8,4.5c0.5,1.2,0.9,2.4,1.1,3.1c0,0.2,0,0.4,0,0.6l0,0c-0.1,0.4-0.3,0.6-0.7,0.5
			c-0.2,0-0.3-0.1-0.5-0.3c-0.7-0.7-1.5-1-2.1-0.9c-0.2,0-0.4,0.1-0.6,0.2c-0.1,0.1-0.2,0.2-0.3,0.4c-0.1,0.4,0,1,0.6,1.9
			c0.2,0.2,0.1,0.5-0.1,0.7c-0.2,0.2-0.5,0.1-0.7-0.1c-0.7-1.1-0.9-2-0.7-2.7c0.1-0.4,0.4-0.7,0.7-0.9c0.3-0.2,0.7-0.3,1.1-0.4
			c0.7-0.1,1.5,0.1,2.3,0.7c-0.2-0.6-0.5-1.5-0.8-2.3c-0.7-1.7-2.1-3.3-3.4-4c-0.5-0.3-0.9-0.4-1.4-0.4c-0.4,0-0.7,0.2-0.9,0.5
			C516-73.5,515.7-72.5,515.7-71z"/>
		<path class="st9" d="M509.9,22.4c0-0.4,0.3-0.7,0.7-0.7c0.4,0,0.7,0.3,0.7,0.7L511.2,43c0,0.4-0.3,0.7-0.7,0.7
			c-0.4,0-0.7-0.3-0.7-0.7L509.9,22.4z"/>
		<path class="st9" d="M612.2,22.4c0-0.4,0.3-0.7,0.7-0.7s0.7,0.3,0.7,0.7L613.5,43c0,0.4-0.3,0.7-0.7,0.7c-0.4,0-0.7-0.3-0.7-0.7
			L612.2,22.4z"/>
		<path class="st10" d="M518.1-88.4c0.7,6.6,6.4,16.5,7.6,19.4s0.1-9.3,0.1-24.9S518.1-88.4,518.1-88.4z"/>
		<path class="st10" d="M605.5-88.4c-0.7,6.6-6.4,16.5-7.6,19.4c-1.2,2.9-0.1-9.3-0.1-24.9S605.5-88.4,605.5-88.4z"/>
		<path class="st11" d="M555.3-132c-5.5,0-10.7,10.3-11.2,18.9c-1.7,30.6-31,20.1-34.3,39c-1.2-3.5-4.2-15.5-4.5-17
			c-2.4-11.2,12.4-24.1,15.2-36.1c2.8-12.2,9.8-21.7,18.5-26c7.6-3.7,16.1-3.6,20.2,1c1.3,1,2.5,2.2,2.5,2.2s1-1,2.2-2
			c4-5,12.8-5.2,20.7-1.2c8.5,4.4,15.5,14,18.3,26c2.8,12,17.6,24.9,15.2,36.1c-0.3,1.5-3.3,13.4-4.5,17c-3.3-19-29.6-9.5-32.8-40
			c-1.1-10.6-5.9-15.7-10.6-16.6c-0.5-0.1-4.4-1.3-8,4.3C561.2-124.9,560.6-132,555.3-132z"/>
		<path class="st12" d="M511.1-83c-0.2,0.2-0.5,0.3-0.7,0.1c-0.2-0.2-0.3-0.5-0.1-0.7c0.4-0.5,0.7-1.1,1.1-1.7
			c2.8-4.3,5.2-8,15.2-10.6c9.4-2.5,11.1-14.4,12.7-24.8c0.2-1.4,0.4-2.8,0.6-4.2c0.3-2.1,0.9-4,1.7-5.7c1.5-3.4,3.7-5.8,5.9-7.4
			c2.3-1.6,4.8-2.2,6.9-1.9c0.5,0.1,1,0.2,1.4,0.4l4.7,2.1c0.2,0.1,0.4,0.4,0.3,0.7s-0.4,0.4-0.7,0.3l-4.7-2.1
			c-0.4-0.2-0.8-0.3-1.2-0.4c-1.8-0.3-4,0.3-6.1,1.7c-2.2,1.5-4.2,3.8-5.6,7c-0.7,1.6-1.3,3.4-1.6,5.5c-0.2,1.3-0.4,2.7-0.6,4.2
			c-1.6,10.7-3.4,23-13.4,25.7c-9.6,2.5-11.9,6-14.6,10.2C511.8-84.1,511.5-83.5,511.1-83z"/>
		<path class="st12" d="M510.4-96.4c-0.1,0.3-0.4,0.4-0.7,0.3c-0.3-0.1-0.4-0.4-0.3-0.7c1.1-2.5,2.5-4.2,4.3-5.5h0
			c1.7-1.2,3.8-2,6.3-2.7c9.4-2.5,11.1-14.4,12.7-24.8c0.2-1.4,0.4-2.8,0.6-4.2c0.3-1.9,0.9-3.7,1.6-5.3c1.5-3.2,3.7-5.6,6.5-7.1
			c2.8-1.5,6.1-2,9.6-1.5c1.7,0.3,3.5,0.8,5.3,1.7c0.2,0.1,0.4,0.4,0.2,0.7c-0.1,0.2-0.4,0.4-0.7,0.2c-1.7-0.8-3.4-1.3-5.1-1.6
			c-3.3-0.5-6.4,0-9,1.4c-2.6,1.4-4.7,3.7-6.1,6.7c-0.7,1.5-1.2,3.2-1.5,5c-0.2,1.3-0.4,2.7-0.6,4.2c-1.6,10.7-3.4,23-13.4,25.7
			c-2.3,0.6-4.3,1.4-5.9,2.5h0C512.7-100.4,511.4-98.8,510.4-96.4z"/>
		<path class="st12" d="M614.8-83.5c0.2,0.2,0.1,0.5-0.1,0.7c-0.2,0.2-0.5,0.1-0.7-0.1c-0.4-0.6-0.8-1.1-1.1-1.7
			c-2.7-4.2-5-7.7-14.6-10.2c-10-2.6-11.8-14.9-13.4-25.7c-0.2-1.4-0.4-2.8-0.6-4.2c-0.3-2-0.9-3.8-1.6-5.4c-1.4-3.2-3.4-5.5-5.6-7
			c-2.1-1.4-4.3-2-6.1-1.7c-0.4,0.1-0.8,0.2-1.2,0.4l-4.7,2.1c-0.2,0.1-0.5,0-0.7-0.3c-0.1-0.3,0-0.5,0.3-0.7l4.7-2.1
			c0.5-0.2,0.9-0.3,1.4-0.4c2.1-0.3,4.5,0.3,6.9,1.9c2.3,1.6,4.4,4,5.9,7.4c0.7,1.7,1.3,3.6,1.7,5.7c0.2,1.4,0.4,2.8,0.6,4.2
			c1.5,10.4,3.3,22.4,12.7,24.8c10,2.6,12.4,6.3,15.2,10.6C614.1-84.6,614.4-84.1,614.8-83.5z"/>
		<path class="st12" d="M615.6-96.8c0.1,0.3,0,0.5-0.3,0.7c-0.3,0.1-0.5,0-0.7-0.3c-1-2.3-2.3-3.9-4-5.1l0,0
			c-1.6-1.2-3.6-1.9-5.9-2.5c-10-2.6-11.8-14.9-13.4-25.7c-0.2-1.4-0.4-2.8-0.6-4.2c-0.3-1.8-0.8-3.5-1.5-5c-1.4-3-3.5-5.3-6.1-6.7
			c-2.6-1.4-5.7-1.9-9-1.4c-1.6,0.3-3.3,0.8-5.1,1.6c-0.2,0.1-0.5,0-0.7-0.2c-0.1-0.2,0-0.5,0.2-0.7c1.8-0.8,3.6-1.4,5.3-1.7
			c3.5-0.6,6.8,0,9.6,1.5c2.8,1.5,5,3.9,6.5,7.1c0.7,1.6,1.3,3.3,1.6,5.3c0.2,1.4,0.4,2.8,0.6,4.2c1.5,10.4,3.3,22.4,12.7,24.8
			c2.4,0.6,4.5,1.4,6.2,2.7l0,0C613.1-101.1,614.5-99.3,615.6-96.8z"/>
	</g>
</g>
<g>
	<g>
		<path class="st4" d="M50.4,71.1c3.2,10.3,9.4,16,20.4,18.8C68,85.8,69,79.7,73.8,77.1c4.7-2.6,9.9-5.2,9.9-10.4
			c0-8.2-6.3-7.3-2.6-12.6c3.6-5.3,3.9-14.3-2.7-18.7c-0.1-0.1-0.2-0.1-0.3-0.2c-1.2-1.2-2.1-1.5-0.7-3.8
			c9.2-15.5-18.7-30.7-26.8-18.1c-1.8-2.5-5-5.1-10.5-4.5c-3.5,0.4-12.3,4-16.2,10.4c-6.5,10.7,3.2,10.5-1.5,16.1
			c-0.5,0.4-1,0.8-1.4,1.4c-0.1,0-0.1,0.1-0.2,0.1c-6.1,4.8-4.6,12-1,17.3c3.6,5.3-3.4,5.4-3.5,12.3c-0.1,7.1,7.3,8.5,12,11.1
			c4.7,2.6,4.5,8.3,1.7,12.5C41,87.2,47.2,81.4,50.4,71.1z"/>
		<path class="st1" d="M50,100h35.2C85.2,66.9,59,84.7,59,57.1h-9h-9.1c0,27.6-26.2,9.7-26.2,42.9H50z"/>
		<path class="st1" d="M30.7,40.3c-0.1-0.9-3.9-2-5.2,1c-1.3,3.1,1,7.4,5.4,7.7c4.3,0.3,3.1-0.4,3.1-0.4L30.7,40.3z"/>
		<path class="st1" d="M69.4,40.3c0.1-0.9,3.9-2,5.2,1c1.3,3.1-1,7.4-5.4,7.7c-4.3,0.3-3.1-0.4-3.1-0.4L69.4,40.3z"/>
		<path class="st2" d="M59.1,56.4c0,0,0,1.3,0,3.1c-3.5,8.7-14.2,9.7-18.2,0.4c0-2.1,0-3.5,0-3.5C47,56.4,53,56.4,59.1,56.4z"/>
		<path class="st1" d="M50,61C27.4,61.5,16,5.8,50,7.3C84,5.8,72.6,61.5,50,61z"/>
		<path class="st4" d="M39.8,36.5c0,0.3-0.2,0.6-0.5,0.7c-0.3,0-0.6-0.2-0.7-0.5c0-0.3,0-0.6,0.1-0.9c0.1-0.3,0.2-0.6,0.4-0.9
			c0.4-0.6,1.1-0.9,1.7-1.1c0.7-0.1,1.4,0,2,0.5c0.4,0.3,0.7,0.6,0.8,1c0.2,0.4,0.3,0.9,0.2,1.3c0,0.3-0.3,0.6-0.7,0.6
			c-0.3,0-0.6-0.3-0.6-0.6c0-0.2,0-0.5-0.1-0.7c-0.1-0.2-0.2-0.4-0.5-0.5C41.7,35,41.4,34.9,41,35c-0.4,0.1-0.7,0.3-0.9,0.6
			c-0.1,0.1-0.2,0.3-0.2,0.5C39.8,36.2,39.8,36.4,39.8,36.5z"/>
		<path class="st6" d="M39.9,41.4c1.2,0.9,1.2,2.2,0.1,2.9C38.9,45,37.1,44.9,36,44c-1.2-0.9-1.2-2.2-0.1-2.9
			C37,40.4,38.8,40.6,39.9,41.4z"/>
		<path class="st6" d="M60.2,41.4c-1.2,0.9-1.2,2.2-0.1,2.9c1.1,0.7,2.9,0.6,4.1-0.3c1.2-0.9,1.2-2.2,0.1-2.9
			C63.2,40.4,61.4,40.6,60.2,41.4z"/>
		<path class="st7" d="M43.3,28.6c-0.1,0-0.2-0.1-0.2-0.1c-0.9-0.3-1.6-0.4-2.6-0.3c-0.9,0.1-1.6,0.3-2.4,0.8
			c-0.4,0.2-1.8,1.4-1.4,1.8c0.2,0,1.6-0.7,2-0.8c0.6-0.2,1.2-0.3,1.9-0.3c0.6,0,1.1,0.1,1.7,0.3c0,0,0.1,0.1,0.1,0.1
			c1.2,0.6,1.1,1,1.9,0.4C45.5,29.8,44.3,29.1,43.3,28.6z"/>
		<path class="st7" d="M56.7,28.6c0.1,0,0.2-0.1,0.2-0.1c0.9-0.3,1.6-0.4,2.6-0.3c0.9,0.1,1.6,0.3,2.4,0.8c0.4,0.2,1.8,1.4,1.4,1.8
			c-0.2,0-1.6-0.7-2-0.8c-0.6-0.2-1.2-0.3-1.9-0.3c-0.6,0-1.1,0.1-1.7,0.3c0,0-0.1,0.1-0.1,0.1c-1.2,0.6-1.1,1-1.9,0.4
			C54.4,29.8,55.7,29.1,56.7,28.6z"/>
		<path class="st8" d="M44.1,46.2c2.1,0,4.2,0,6.2,0c2.1,0,4.1,0,6.2,0c0,3.3-3.2,4.4-6.2,4.4h0h0C47.4,50.6,44.1,49.4,44.1,46.2z"
			/>
		<path class="st2" d="M48.9,52.5c-0.1-0.1-0.2-0.2-0.1-0.3c0.1-0.1,0.2-0.2,0.3-0.1c0.3,0.2,0.8,0.3,1.2,0.3c0.4,0,0.8-0.1,1.2-0.3
			c0.1-0.1,0.3,0,0.3,0.1c0.1,0.1,0,0.3-0.1,0.3c-0.4,0.2-0.9,0.4-1.4,0.4C49.9,52.9,49.4,52.8,48.9,52.5z"/>
		<path class="st2" d="M49.8,41.7c-0.1,0-0.2-0.1-0.2-0.2c0-0.1,0.1-0.2,0.2-0.2c0.6,0,1.3,0,1.8-0.1c0.4-0.1,0.8-0.2,0.8-0.4
			c0-0.7-0.7-5.1-0.7-5.1c0-0.1,0.1-0.3,0.2-0.3c0.1,0,0.3,0.1,0.3,0.2c0,0,0.7,4.4,0.7,5.2c0,0.5-0.5,0.8-1.2,0.9
			C51.1,41.7,50.4,41.7,49.8,41.7z"/>
		<path class="st2" d="M73.2,43.8c0,0.1-0.1,0.2-0.2,0.2c-0.1,0-0.2-0.1-0.2-0.2c0-0.7-0.1-1.2-0.3-1.5c-0.1-0.2-0.3-0.2-0.5-0.2
			c-0.2,0-0.4,0.1-0.7,0.2c-0.6,0.4-1.3,1.1-1.7,2c-0.2,0.4-0.3,0.8-0.4,1.1c0.4-0.3,0.8-0.4,1.1-0.3c0.2,0,0.4,0.1,0.5,0.2
			c0.2,0.1,0.3,0.3,0.3,0.5c0.1,0.3,0,0.8-0.3,1.3c-0.1,0.1-0.2,0.1-0.3,0.1c-0.1-0.1-0.1-0.2-0.1-0.3c0.3-0.4,0.3-0.7,0.3-0.9
			c0-0.1-0.1-0.2-0.1-0.2c-0.1-0.1-0.2-0.1-0.3-0.1c-0.3,0-0.7,0.1-1,0.4c-0.1,0.1-0.2,0.1-0.2,0.2c-0.2,0-0.3,0-0.4-0.2l0,0
			c0-0.1,0-0.2,0-0.3c0.1-0.3,0.3-1,0.5-1.5c0.4-0.9,1.2-1.8,1.9-2.2c0.3-0.2,0.6-0.3,0.9-0.3c0.3,0,0.6,0.1,0.8,0.4
			C73,42.3,73.2,42.9,73.2,43.8z"/>
		<path class="st2" d="M27.3,43.8c0,0.1-0.1,0.2-0.2,0.2s-0.2-0.1-0.2-0.2c0-0.9,0.2-1.4,0.4-1.8c0.2-0.3,0.5-0.4,0.8-0.4
			c0.3,0,0.6,0.1,0.9,0.3c0.7,0.4,1.5,1.3,1.9,2.2c0.3,0.6,0.5,1.2,0.5,1.5c0,0.1,0,0.2,0,0.3l0,0c0,0.2-0.2,0.3-0.4,0.2
			c-0.1,0-0.2-0.1-0.2-0.2c-0.3-0.3-0.7-0.5-1-0.4c-0.1,0-0.2,0-0.3,0.1c-0.1,0-0.1,0.1-0.1,0.2c-0.1,0.2,0,0.5,0.3,0.9
			c0.1,0.1,0,0.3-0.1,0.3c-0.1,0.1-0.3,0-0.3-0.1c-0.4-0.5-0.4-1-0.3-1.3c0.1-0.2,0.2-0.3,0.3-0.5c0.1-0.1,0.3-0.2,0.5-0.2
			c0.3,0,0.8,0.1,1.1,0.3c-0.1-0.3-0.2-0.7-0.4-1.1c-0.4-0.8-1-1.6-1.7-2c-0.2-0.1-0.5-0.2-0.7-0.2c-0.2,0-0.3,0.1-0.5,0.2
			C27.5,42.6,27.3,43,27.3,43.8z"/>
		<path class="st13" d="M31,43.8c-2.3-4.4-2.2-9.4-2.5-11.3c-2.1-18.7,9.5-27.6,21-27.2c0.1,0,0.2,0,0.4,0v7.3
			c-2.1-0.7-3.9-1.1-4.9-1.1c-0.1,0-0.2,0-0.4,0c-0.1,0-0.2,0-0.3,0c-2.6,0-4,4.4-7,5.6c-1.7,0.7-0.1,8.8-1.9,12.8
			c-0.4,1-2.8,3.3-3.3,3.6C30.7,35.1,30.5,36.9,31,43.8z"/>
		<path class="st13" d="M69,43.8c2.3-4.4,2.2-9.4,2.5-11.3c2.1-18.7-9.5-27.6-21-27.2c-0.1,0-0.2,0-0.4,0v7.3
			c2.1-0.7,3.9-1.1,4.9-1.1c0.1,0,0.2,0,0.4,0c0.1,0,0.2,0,0.3,0c2.6,0,4,5.6,7,6.8c1.7,0.7,0.1,7.5,1.9,11.6c0.4,1,2.8,3.3,3.3,3.6
			C69.3,35.1,69.5,36.9,69,43.8z"/>
		<polygon class="st0" points="50,100 76.9,100 75.4,90.8 24.6,90.8 23.1,100 		"/>
		<path class="st0" d="M26.6,91.6c0,0.6-0.5,1-1.1,1c-0.6,0-1-0.5-1-1.1l2.1-15.1c0-0.6,0.5-1,1.1-1c0.6,0,1,0.5,1,1.1L26.6,91.6z"
			/>
		<path class="st0" d="M73.4,91.6c0,0.6,0.5,1,1.1,1c0.6,0,1-0.5,1-1.1l-2.1-15.1c0-0.6-0.5-1-1.1-1c-0.6,0-1,0.5-1,1.1L73.4,91.6z"
			/>
		<path class="st4" d="M57.5,36.5c0,0.3-0.2,0.6-0.5,0.7c-0.3,0-0.6-0.2-0.7-0.5c0-0.3,0-0.6,0.1-0.9c0.1-0.3,0.2-0.6,0.4-0.9
			c0.4-0.6,1.1-0.9,1.7-1.1c0.7-0.1,1.4,0,2,0.5c0.4,0.3,0.7,0.6,0.8,1c0.2,0.4,0.3,0.9,0.2,1.3c0,0.3-0.3,0.6-0.7,0.6
			c-0.3,0-0.6-0.3-0.6-0.6c0-0.2,0-0.5-0.1-0.7c-0.1-0.2-0.3-0.4-0.5-0.5C59.4,35,59,34.9,58.7,35c-0.4,0.1-0.7,0.3-0.9,0.6
			c-0.1,0.1-0.2,0.3-0.2,0.5C57.5,36.2,57.5,36.4,57.5,36.5z"/>
		<path class="st14" d="M36.6,18.2c10.2-7.1,5.8,5.5,14.4,5.5c4.3,0,8.2,1.8,8.2,5.4c-0.1,3.6-0.1,5.3,3.8,7.1
			c7.6,3.7-6.9,16.3,12.2,17c-2-9.2,7.5-12.2,4.3-20.2c-3.2-8-9.4-5.7-8.1-10.6c1.1-3.9,1.5-8.1-1.3-11.2c-4.1-4.3-8.1,0.1-10.7-4.1
			C57.3,3.7,56-1.5,46.8,0.4C35,2.9,34.5,12.3,36.6,18.2z"/>
		<path class="st15" d="M37.9,13.9c-0.1,0.1-0.2,0.1-0.3,0.1c-0.1-0.1-0.1-0.2-0.1-0.3c0.4-0.5,1.3-1.1,2.4-1.5
			c0.8-0.3,1.7-0.4,2.6-0.4c0.9,0,1.8,0.2,2.5,0.8c0.6,0.5,1.2,1.1,1.5,2.1c0.8,2.2,1.5,3.4,2.4,4.1c1,0.7,2.2,0.8,4.1,0.9
			c2,0.1,4.3,0.4,6.2,1.5c1.9,1.1,3.4,2.9,3.5,6c0.1,2.9,0.4,4.6,1.1,5.6c0.6,1,1.5,1.3,2.8,1.7c0.1,0,0.2,0.1,0.3,0.1
			c1.2,0.5,2.1,1.2,2.6,2.4c0.4,1.1,0.4,2.6-0.2,4.4c-0.1,0.2-0.1,0.4-0.2,0.5c-0.7,1.9-0.9,3.6-0.6,5c0.3,1.4,1,2.4,2.1,2.9
			c0.1,0.1,0.2,0.2,0.1,0.3C70.6,50,70.5,50,70.4,50c-1.2-0.5-2.1-1.7-2.4-3.2c-0.3-1.5-0.1-3.3,0.6-5.3c0.1-0.2,0.1-0.3,0.2-0.5
			c0.6-1.7,0.6-3.1,0.2-4.1c-0.4-1-1.2-1.7-2.3-2.1c-0.1,0-0.2-0.1-0.2-0.1c-1.3-0.4-2.3-0.8-3-1.9c-0.7-1.1-1-2.8-1.1-5.8
			c-0.1-2.9-1.4-4.6-3.2-5.5c-1.8-1-4.1-1.3-6-1.4c-2-0.1-3.3-0.3-4.4-1c-1.1-0.7-1.8-2-2.6-4.3c-0.3-0.9-0.8-1.5-1.3-1.9
			c-0.6-0.5-1.4-0.7-2.2-0.7c-0.8,0-1.6,0.1-2.4,0.4C39.1,12.9,38.2,13.4,37.9,13.9z"/>
		<path class="st15" d="M40.4,6.8c-0.1,0.1-0.3,0-0.3-0.1c-0.1-0.1,0-0.3,0.1-0.3c0.5-0.2,1-0.4,1.6-0.6c1.3-0.4,3-0.5,4.4-0.3
			c1.5,0.3,2.8,1,3.5,2.5c0.1,0.3,0.2,0.5,0.3,0.8c0.5,1.9,1.6,3.2,2.8,4c1.5,0.9,3.3,1.2,5.1,0.9c0.4-0.1,0.8-0.1,1.2-0.1
			c1.6,0,3.5,0.4,5,1.3c1.5,0.9,2.7,2.2,3,4.1c0,0.3,0.1,0.5,0.1,0.8c0,0.8,0,1.6,0,2.3C67,25,67,26.7,68.7,27.7
			c0.1,0.1,0.3,0.2,0.4,0.2h0c2.6,1.5,9,5.2,6.7,11.1c-2.3,6.1-2.9,6.8-2.9,6.8c-0.1,0.1-0.2,0.1-0.3,0c-0.1-0.1-0.1-0.2,0-0.3
			c0,0,0.5-0.6,2.8-6.7c2.1-5.6-4-9.1-6.5-10.5l0,0c-0.2-0.1-0.3-0.2-0.4-0.2c-1.9-1.1-1.9-3-1.8-6.1c0-0.7,0-1.4,0-2.3
			c0-0.3,0-0.5-0.1-0.7c-0.2-1.7-1.4-2.9-2.8-3.7c-1.4-0.8-3.2-1.2-4.8-1.2c-0.4,0-0.8,0-1.1,0.1c-1.9,0.3-3.8,0-5.4-1
			c-1.4-0.9-2.5-2.2-3-4.3c-0.1-0.3-0.2-0.5-0.3-0.8c-0.6-1.3-1.8-1.9-3.1-2.2c-1.4-0.3-2.9-0.1-4.2,0.3C41.4,6.4,40.8,6.6,40.4,6.8
			z"/>
	</g>
</g>
<g>
	<g>
		<path class="st1" d="M774.1,43h71.4c0-67.2-53.3-30.9-53.3-86.9h-18.2h-18.4c0,56-53,19.7-53,86.9H774.1z"/>
		<path class="st1" d="M735-78c-0.2-1.9-7.9-4.1-10.5,2.1c-2.6,6.2,2.1,15,10.9,15.7c8.8,0.7,6.2-0.9,6.2-0.9L735-78z"/>
		<path class="st1" d="M813.3-78c0.2-1.9,7.9-4.1,10.5,2.1s-2.1,15-10.9,15.7c-8.8,0.7-6.2-0.9-6.2-0.9L813.3-78z"/>
		<path class="st2" d="M792.5-45.5c0,0-0.1,2.6,0,6.4c-6.4,16.1-30,16.7-36.8,0.7c0.1-4.2,0-7.1,0-7.1
			C767.9-45.5,780.2-45.5,792.5-45.5z"/>
		<path class="st1" d="M774.1-36.2c-45.8,1.1-68.9-111.8,0-108.9C842.9-147.9,819.8-35.1,774.1-36.2z"/>
		<path class="st4" d="M753.4-85.7c0.1,0.7-0.4,1.3-1.1,1.4c-0.7,0.1-1.3-0.4-1.4-1.1c-0.1-0.6,0-1.3,0.2-1.9
			c0.2-0.6,0.4-1.2,0.8-1.7c0.9-1.2,2.1-1.9,3.5-2.1c1.3-0.2,2.8,0.1,4,0.9c0.8,0.6,1.3,1.3,1.7,2.1c0.4,0.8,0.6,1.7,0.5,2.6
			c0,0.7-0.6,1.2-1.3,1.2c-0.7,0-1.2-0.6-1.2-1.3c0-0.5-0.1-1-0.3-1.4c-0.2-0.4-0.5-0.8-0.9-1.1c-0.6-0.5-1.4-0.6-2.1-0.5
			c-0.7,0.1-1.4,0.5-1.9,1.2c-0.2,0.3-0.4,0.6-0.4,0.9C753.4-86.4,753.4-86.1,753.4-85.7z"/>
		<path class="st6" d="M753.6-75.8c2.3,1.8,2.4,4.4,0.2,5.9c-2.2,1.4-5.9,1.2-8.2-0.6c-2.3-1.8-2.4-4.4-0.2-5.9
			C747.6-77.8,751.3-77.6,753.6-75.8z"/>
		<path class="st6" d="M794.7-75.8c-2.3,1.8-2.4,4.4-0.2,5.9c2.2,1.4,5.9,1.2,8.2-0.6c2.3-1.8,2.4-4.4,0.2-5.9
			C800.8-77.8,797.1-77.6,794.7-75.8z"/>
		<path class="st7" d="M760.5-101.8c-0.2-0.1-0.3-0.1-0.5-0.2c-1.8-0.6-3.3-0.8-5.2-0.7c-1.9,0.2-3.3,0.6-4.9,1.5
			c-0.7,0.5-3.6,2.8-2.8,3.7c0.3,0.1,3.2-1.4,4.1-1.7c1.3-0.4,2.4-0.5,3.8-0.5c1.3,0.1,2.3,0.2,3.5,0.7c0,0,0.2,0.1,0.3,0.1
			c2.4,1.2,2.2,1.9,3.8,0.8C765-99.3,762.4-100.8,760.5-101.8z"/>
		<path class="st7" d="M787.6-101.8c0.2-0.1,0.3-0.1,0.5-0.2c1.8-0.6,3.3-0.8,5.2-0.7c1.9,0.2,3.3,0.6,4.9,1.5
			c0.7,0.5,3.6,2.8,2.8,3.7c-0.3,0.1-3.2-1.4-4.1-1.7c-1.3-0.4-2.4-0.5-3.8-0.5c-1.3,0.1-2.3,0.2-3.5,0.7c0,0-0.2,0.1-0.3,0.1
			c-2.4,1.2-2.2,1.9-3.8,0.8C783.1-99.3,785.7-100.8,787.6-101.8z"/>
		<path class="st8" d="M762.2-66.2c4.2-0.1,8.4-0.1,12.6-0.1s8.4,0,12.6,0.1c0,6.6-6.5,9-12.6,9l0,0l0,0
			C768.7-57.2,762.2-59.6,762.2-66.2z"/>
		<path class="st2" d="M771.9-53.3c-0.2-0.1-0.3-0.4-0.2-0.7s0.4-0.3,0.7-0.2c0.7,0.4,1.6,0.6,2.4,0.6c0.9,0,1.7-0.2,2.4-0.6
			c0.2-0.1,0.5-0.1,0.7,0.2c0.1,0.2,0.1,0.5-0.2,0.7c-0.8,0.5-1.9,0.7-2.9,0.7C773.8-52.5,772.7-52.8,771.9-53.3z"/>
		<path class="st2" d="M773.7-75.3c-0.3,0-0.5-0.2-0.5-0.5c0-0.3,0.2-0.5,0.5-0.5c1.2,0,2.6,0,3.7-0.2c0.9-0.2,1.6-0.4,1.6-0.8
			c0-1.4-1.4-10.3-1.5-10.3c0-0.3,0.1-0.5,0.4-0.6c0.3,0,0.5,0.1,0.6,0.4c0,0,1.5,9,1.5,10.5c0,1-1,1.6-2.4,1.8
			C776.4-75.3,774.9-75.3,773.7-75.3z"/>
		<path class="st2" d="M821-71c0,0.3-0.2,0.5-0.5,0.5c-0.3,0-0.5-0.2-0.5-0.5c0-1.5-0.3-2.5-0.7-3c-0.3-0.3-0.6-0.5-0.9-0.5
			c-0.4,0-0.9,0.1-1.4,0.4c-1.3,0.7-2.7,2.3-3.4,4c-0.4,0.8-0.7,1.7-0.8,2.3c0.8-0.5,1.6-0.7,2.3-0.7c0.4,0,0.8,0.2,1.1,0.4
			c0.3,0.2,0.5,0.5,0.7,0.9c0.2,0.7,0,1.6-0.7,2.7c-0.2,0.2-0.5,0.3-0.7,0.1c-0.2-0.2-0.3-0.5-0.1-0.7c0.5-0.8,0.7-1.4,0.6-1.9
			c-0.1-0.2-0.2-0.3-0.3-0.4c-0.2-0.1-0.4-0.2-0.6-0.2c-0.6-0.1-1.4,0.2-2.1,0.9c-0.2,0.2-0.3,0.3-0.5,0.3c-0.4,0.1-0.6-0.1-0.7-0.5
			l0,0c0-0.1,0-0.3,0-0.6c0.1-0.7,0.5-2,1.1-3.1c0.8-1.9,2.3-3.6,3.8-4.5c0.6-0.4,1.3-0.6,1.9-0.5c0.6,0,1.2,0.3,1.7,0.8
			C820.7-73.9,821-72.8,821-71z"/>
		<path class="st2" d="M728.1-71c0,0.3-0.2,0.5-0.5,0.5s-0.5-0.2-0.5-0.5c0-1.8,0.3-2.9,0.9-3.6c0.5-0.6,1-0.8,1.7-0.8
			c0.6,0,1.2,0.2,1.9,0.5c1.5,0.8,3,2.6,3.8,4.5c0.5,1.2,0.9,2.4,1.1,3.1c0,0.2,0,0.4,0,0.6l0,0c-0.1,0.4-0.3,0.6-0.7,0.5
			c-0.2,0-0.3-0.1-0.5-0.3c-0.7-0.7-1.5-1-2.1-0.9c-0.2,0-0.4,0.1-0.6,0.2c-0.1,0.1-0.2,0.2-0.3,0.4c-0.1,0.4,0,1,0.6,1.9
			c0.2,0.2,0.1,0.5-0.1,0.7c-0.2,0.2-0.5,0.1-0.7-0.1c-0.7-1.1-0.9-2-0.7-2.7c0.1-0.4,0.4-0.7,0.7-0.9c0.3-0.2,0.7-0.3,1.1-0.4
			c0.7-0.1,1.6,0.1,2.3,0.7c-0.2-0.6-0.5-1.5-0.8-2.3c-0.7-1.7-2.1-3.3-3.4-4c-0.5-0.3-0.9-0.4-1.4-0.4c-0.4,0-0.7,0.2-0.9,0.5
			C728.3-73.5,728.1-72.5,728.1-71z"/>
		<path class="st4" d="M789.2-85.7c0.1,0.7-0.4,1.3-1.1,1.4s-1.3-0.4-1.4-1.1c-0.1-0.6,0-1.3,0.2-1.9c0.2-0.6,0.4-1.2,0.8-1.7
			c0.9-1.2,2.1-1.9,3.5-2.1c1.3-0.2,2.8,0.1,4,0.9c0.8,0.6,1.3,1.3,1.7,2.1c0.4,0.8,0.6,1.7,0.5,2.6c0,0.7-0.6,1.2-1.3,1.2
			c-0.7,0-1.2-0.6-1.2-1.3c0-0.5-0.1-1-0.3-1.4c-0.2-0.4-0.5-0.8-0.9-1.1c-0.6-0.5-1.4-0.6-2.1-0.5c-0.7,0.1-1.4,0.5-1.9,1.2
			c-0.2,0.3-0.4,0.6-0.4,0.9C789.2-86.4,789.2-86.1,789.2-85.7z"/>
		<path class="st0" d="M809.4-119.1c-8.3-3.6-9.9-7.6-12.2-12.3c-4.3-9.1-2.1-19.1,6.4-22.3c16.4-6.2,30.1,9.6,28,22.3
			C830-122.4,820.2-114.4,809.4-119.1z"/>
		<path class="st0" d="M738.9-119.1c8.3-3.6,9.9-7.6,12.2-12.3c4.3-9.1,2.1-19.1-6.4-22.3c-16.4-6.2-30.1,9.6-28,22.3
			C718.3-122.4,728.1-114.4,738.9-119.1z"/>
		<path class="st16" d="M735.1-69.1c1.8-1.9-1.4-11.2,1.1-24.1c2.5-12.9,33-28.5,37.9-35.6c5,7,35.4,22.7,37.9,35.6
			c2.5,12.9,1.1,15.9,2.9,17.8c1.4,1.4,19.4-71.9-40.8-71.4C709-146.7,734.9-68.9,735.1-69.1z"/>
		<path class="st17" d="M773.9-130.1c2,12.1-22.9,18.6-28,50.9c-4.5,28.8,3.5,57.4,3.5,57.4c0.4,1.6-1.5,0.8-3.2-2.8
			c-2.6-5.5-18.3-34.9-12.7-61.9C739.2-113.4,760.7-125.8,773.9-130.1z"/>
		<path class="st17" d="M774.2-130.1c-2,12.1,22.9,18.6,28,50.9c4.5,28.8-3.5,57.4-3.5,57.4c-0.4,1.6,1.5,0.8,3.2-2.8
			c2.6-5.5,18.3-34.9,12.7-61.9C808.9-113.4,787.4-125.8,774.2-130.1z"/>
		<path class="st18" d="M793.5-30.4c-10.3,6.8-29.4,7.5-39.2-0.3c-0.6,2.9-1.5,5.4-2.5,7.6c12.3,7.8,31.8,7.3,44.3,0.1
			C795-25.1,794.2-27.5,793.5-30.4z"/>
		<path class="st18" d="M702.6,43h72.2h70.7c0-26.9-8.5-37.2-18.7-43.5C798,34.4,750.9,34.2,722.3-1.1
			C711.7,5.1,702.6,15.2,702.6,43z"/>
		<path class="st19" d="M722.3,22.4c0-0.4,0.3-0.7,0.7-0.7c0.4,0,0.7,0.3,0.7,0.7L723.6,43c0,0.4-0.3,0.7-0.7,0.7
			c-0.4,0-0.7-0.3-0.7-0.7L722.3,22.4z"/>
		<path class="st19" d="M824.5,22.4c0-0.4,0.3-0.7,0.7-0.7c0.4,0,0.7,0.3,0.7,0.7L825.8,43c0,0.4-0.3,0.7-0.7,0.7
			c-0.4,0-0.7-0.3-0.7-0.7L824.5,22.4z"/>
		<path class="st20" d="M746.6-33.1c0.1,0.2,0,0.5-0.2,0.7s-0.5,0-0.7-0.2c-7.6-15.7-9.5-33.8-5.5-50.3c3.8-15.7,12.8-30,27-39.5
			c0.2-0.2,0.5-0.1,0.7,0.1c0.2,0.2,0.1,0.5-0.1,0.7c-14,9.3-22.9,23.4-26.6,38.9C737.3-66.5,739.1-48.6,746.6-33.1z"/>
		<path class="st20" d="M802.4-32.7c-0.1,0.2-0.4,0.3-0.7,0.2s-0.3-0.4-0.2-0.7c7.5-15.5,9.3-33.4,5.4-49.7
			c-3.7-15.5-12.6-29.6-26.6-38.9c-0.2-0.2-0.3-0.5-0.1-0.7c0.2-0.2,0.5-0.3,0.7-0.1c14.3,9.5,23.3,23.8,27,39.5
			C811.8-66.5,810-48.4,802.4-32.7z"/>
	</g>
</g>
<g>
	<g>
		<path class="st21" d="M278.3,547.8h-71c-0.8-36.3,27.1-57.4,51.1-65.2c1.9-10.1,1.4-23.3,1.4-23.3h18.4h18.5
			c0,0-0.5,13.1,1.4,23.3c24,7.9,51.9,28.9,51.1,65.2H278.3z"/>
		<path class="st1" d="M239.2,430.2c-0.2-1.9-7.9-4.1-10.5,2.1s2.1,15,10.9,15.7s6.2-0.9,6.2-0.9L239.2,430.2z"/>
		<path class="st1" d="M317.6,430.2c0.2-1.9,7.9-4.1,10.5,2.1s-2.1,15-10.9,15.7c-8.8,0.7-6.2-0.9-6.2-0.9L317.6,430.2z"/>
		<path class="st2" d="M297,472.3c-8,15.3-28.6,16.9-37.4,0.6c0.2-3.3,0.3-6.5,0.3-8.9h36.8C296.7,466.3,296.8,469.2,297,472.3z"/>
		<path class="st1" d="M278.3,472c-45.8,1.1-68.9-111.8,0-108.9C347.2,360.2,324.1,473.1,278.3,472z"/>
		<path class="st5" d="M262.9,419.6c1.8,1.3,2.3,3.9,0.9,5.7c-1.3,1.8-3.9,2.2-5.7,0.9c-1.8-1.3-2.3-3.9-0.9-5.7
			C258.5,418.7,261.1,418.3,262.9,419.6z"/>
		<path class="st5" d="M294,419.6c-1.8,1.3-2.3,3.9-0.9,5.7c1.3,1.8,3.9,2.2,5.7,0.9c1.8-1.3,2.3-3.9,0.9-5.7
			C298.4,418.7,295.8,418.3,294,419.6z"/>
		<path class="st6" d="M257.9,434.5c2.3,1.8,2.4,4.4,0.2,5.9c-2.2,1.4-5.9,1.2-8.2-0.6c-2.3-1.8-2.4-4.4-0.2-5.9
			C251.9,432.4,255.6,432.7,257.9,434.5z"/>
		<path class="st6" d="M299,434.5c-2.3,1.8-2.4,4.4-0.2,5.9c2.2,1.4,5.9,1.2,8.2-0.6c2.3-1.8,2.4-4.4,0.2-5.9
			C305,432.4,301.3,432.7,299,434.5z"/>
		<path class="st7" d="M264.7,408.5c-0.2-0.1-0.3-0.1-0.5-0.2c-1.8-0.6-3.3-0.8-5.2-0.7c-1.9,0.2-3.3,0.6-4.9,1.5
			c-0.7,0.5-3.6,2.8-2.8,3.7c0.3,0.1,3.2-1.4,4.1-1.7c1.3-0.4,2.4-0.5,3.8-0.5c1.3,0.1,2.3,0.2,3.5,0.7c0,0,0.2,0.1,0.3,0.1
			c2.4,1.2,2.2,1.9,3.8,0.8C269.3,410.9,266.7,409.5,264.7,408.5z"/>
		<path class="st7" d="M291.9,408.5c0.2-0.1,0.3-0.1,0.5-0.2c1.8-0.6,3.3-0.8,5.2-0.7c1.9,0.2,3.3,0.6,4.9,1.5
			c0.7,0.5,3.6,2.8,2.8,3.7c-0.3,0.1-3.2-1.4-4.1-1.7c-1.3-0.4-2.4-0.5-3.8-0.5c-1.3,0.1-2.3,0.2-3.5,0.7c0,0-0.2,0.1-0.3,0.1
			c-2.4,1.2-2.2,1.9-3.8,0.8C287.3,410.9,290,409.5,291.9,408.5z"/>
		<path class="st2" d="M276.2,457c-0.2-0.1-0.3-0.4-0.2-0.7c0.1-0.2,0.4-0.3,0.7-0.2c0.7,0.4,1.6,0.6,2.4,0.6c0.9,0,1.7-0.2,2.4-0.6
			c0.2-0.1,0.5-0.1,0.7,0.2c0.1,0.2,0.1,0.5-0.2,0.7c-0.8,0.5-1.9,0.7-2.9,0.7C278.1,457.7,277,457.5,276.2,457z"/>
		<path class="st2" d="M277.9,439c-0.3,0-0.5-0.2-0.5-0.5c0-0.3,0.2-0.5,0.5-0.5c1.2,0,2.6,0,3.7-0.2c0.9-0.2,1.6-0.4,1.6-0.8
			c0-1.4-1.4-10.3-1.5-10.3c0-0.3,0.1-0.5,0.4-0.6c0.3,0,0.5,0.1,0.6,0.4c0,0,1.5,9,1.5,10.5c0,1-1,1.6-2.4,1.8
			C280.6,439,279.2,439,277.9,439z"/>
		<path class="st2" d="M325.3,437.1c0,0.3-0.2,0.5-0.5,0.5c-0.3,0-0.5-0.2-0.5-0.5c0-1.5-0.3-2.5-0.7-3c-0.3-0.3-0.6-0.5-0.9-0.5
			c-0.4,0-0.9,0.1-1.4,0.4c-1.3,0.7-2.6,2.3-3.4,4c-0.4,0.8-0.7,1.7-0.8,2.3c0.8-0.5,1.6-0.7,2.3-0.7c0.4,0,0.8,0.2,1.1,0.4
			c0.3,0.2,0.5,0.5,0.7,0.9c0.2,0.7,0,1.6-0.7,2.7c-0.2,0.2-0.5,0.3-0.7,0.1c-0.2-0.2-0.3-0.5-0.1-0.7c0.5-0.8,0.7-1.4,0.6-1.9
			c-0.1-0.2-0.2-0.3-0.3-0.4c-0.2-0.1-0.4-0.2-0.6-0.2c-0.6-0.1-1.4,0.2-2.1,0.9c-0.2,0.2-0.4,0.3-0.5,0.3c-0.4,0.1-0.6-0.1-0.7-0.5
			l0,0c0-0.1,0-0.3,0-0.6c0.1-0.7,0.5-2,1.1-3.1c0.8-1.9,2.3-3.6,3.8-4.5c0.6-0.4,1.3-0.6,1.9-0.5c0.6,0,1.2,0.3,1.7,0.8
			C324.9,434.2,325.3,435.4,325.3,437.1z"/>
		<path class="st2" d="M232.3,437.1c0,0.3-0.2,0.5-0.5,0.5s-0.5-0.2-0.5-0.5c0-1.8,0.3-2.9,0.9-3.6c0.5-0.6,1-0.8,1.7-0.8
			c0.6,0,1.2,0.2,1.9,0.5c1.5,0.8,3,2.6,3.8,4.5c0.5,1.2,0.9,2.4,1.1,3.1c0,0.2,0,0.4,0,0.6l0,0c-0.1,0.4-0.3,0.6-0.7,0.5
			c-0.2,0-0.3-0.1-0.5-0.3c-0.7-0.7-1.5-1-2.1-0.9c-0.2,0-0.4,0.1-0.6,0.2c-0.1,0.1-0.2,0.2-0.3,0.4c-0.1,0.4,0,1,0.6,1.9
			c0.2,0.2,0.1,0.5-0.1,0.7s-0.5,0.1-0.7-0.1c-0.7-1.1-0.9-2-0.7-2.7c0.1-0.4,0.4-0.7,0.7-0.9c0.3-0.2,0.7-0.3,1.1-0.4
			c0.7-0.1,1.6,0.1,2.3,0.7c-0.2-0.6-0.5-1.5-0.8-2.3c-0.7-1.7-2.1-3.3-3.4-4c-0.5-0.3-0.9-0.4-1.4-0.4c-0.4,0-0.7,0.1-0.9,0.5
			C232.6,434.7,232.3,435.6,232.3,437.1z"/>
		<path class="st18" d="M329,372.5c1.9,0.4,1.7,1.9-3.9,5.9c5.1,6.5,5.9,16.8,4.2,26.4c-0.4,2.1-6.2,16.7-11.6,26.3
			c-0.5,0.9-0.2-19-5.9-26.9c-2.9-4-5.3-8.8-11.2-12.8c-0.1,1.1,3.5,4.2,2.1,4.8c-5,2.4-19.2-0.1-25.7-1.7c1.9,1.9,3.8,3.3,3.1,4.1
			c-2.3,2.2-16.5-1.2-25.3-7.1c-2.1,7-5.1,14.5-8.5,16.5c-9.1,5.3-5.1,27.8-7.5,24.5c-10.9-15.2-8.1-34.8-8.1-34.8
			c-1.1,1.7-2.3,3.1-3.1,4.8c-1.5,3.1-2.5-25.6,11.1-29.4c0,0-2.2-0.7-7.7,0.3c-2,0.4,4-5.2,10.5-6c0.2-2.8,1.5-14.2,9.8-17.9
			c3.9-1.7,10.2-2.9,9.4-2.4c-4,2.4-5.1,5.7-5.1,5.7c30.4-14.4,44.3,0.9,56.2,10.5C315.2,366.2,322.8,372,329,372.5z"/>
		<path class="st0" d="M259.5,410.1c4.1,0,7.7,1.6,10.4,4.3c2.7,2.7,4.3,6.3,4.3,10.4c0,4-1.6,7.7-4.3,10.4
			c-2.7,2.7-6.3,4.3-10.4,4.3c-4.1,0-7.7-1.6-10.4-4.3c-2.7-2.7-4.3-6.3-4.3-10.4c0-4.1,1.6-7.7,4.3-10.4
			C251.8,411.8,255.5,410.1,259.5,410.1L259.5,410.1z M268.1,416.2c-2.2-2.2-5.3-3.6-8.6-3.6s-6.4,1.4-8.6,3.6
			c-2.2,2.2-3.6,5.3-3.6,8.6c0,3.4,1.4,6.4,3.6,8.6c2.2,2.2,5.3,3.6,8.6,3.6c3.4,0,6.4-1.4,8.6-3.6c2.2-2.2,3.6-5.3,3.6-8.6
			S270.3,418.4,268.1,416.2z"/>
		<path class="st0" d="M297.1,410.1c4,0,7.7,1.6,10.4,4.3c2.7,2.7,4.3,6.3,4.3,10.4c0,4-1.6,7.7-4.3,10.4c-2.7,2.7-6.3,4.3-10.4,4.3
			c-4.1,0-7.7-1.6-10.4-4.3s-4.3-6.3-4.3-10.4c0-4.1,1.6-7.7,4.3-10.4C289.4,411.8,293.1,410.1,297.1,410.1L297.1,410.1z
			 M305.8,416.2c-2.2-2.2-5.3-3.6-8.6-3.6c-3.4,0-6.4,1.4-8.6,3.6c-2.2,2.2-3.6,5.3-3.6,8.6c0,3.4,1.4,6.4,3.6,8.6
			c2.2,2.2,5.3,3.6,8.6,3.6s6.4-1.4,8.6-3.6c2.2-2.2,3.6-5.3,3.6-8.6S308,418.4,305.8,416.2z"/>
		<path class="st0" d="M245.6,423.6c0.5-0.2,1.1,0.1,1.3,0.6c0.2,0.5-0.1,1.1-0.6,1.3l-8.7,3.1c-0.5,0.2-1.1-0.1-1.3-0.6
			c-0.2-0.5,0.1-1.1,0.6-1.3L245.6,423.6z"/>
		<path class="st0" d="M310.4,425.4c-0.5-0.2-0.8-0.8-0.6-1.3c0.2-0.5,0.8-0.8,1.3-0.6l8.7,3.1c0.5,0.2,0.8,0.8,0.6,1.3
			c-0.2,0.5-0.8,0.8-1.3,0.6L310.4,425.4z"/>
		<path class="st0" d="M273.2,423.6c-0.3,0.5-0.9,0.6-1.4,0.3c-0.5-0.3-0.6-0.9-0.3-1.4c0,0,1.7-2.9,6.9-2.9s6.9,2.8,6.9,2.9
			c0.3,0.5,0.1,1.1-0.3,1.4c-0.5,0.3-1.1,0.1-1.4-0.3c0,0-1.1-1.9-5.2-1.9C274.3,421.7,273.2,423.6,273.2,423.6z"/>
		<path class="st8" d="M293.8,443.7c-6.2,2.3-25.2,2.3-31.1,0.3C266,455.8,290.7,455.7,293.8,443.7z"/>
		<path class="st22" d="M259.2,470.2c-0.5-0.2-1.8-0.2-1.8,0.7c0,1,0.9,4.4,0.3,6.9c-0.7,2.7-1.9,4.9-0.5,5.4
			c6.3,2.4,13.1,3.7,19.9,3.9c7.7,0.2,15.4-1.1,22.4-3.9c1.4-0.5,0.2-2.7-0.5-5.4c-0.7-2.5,0.3-5.9,0.3-6.9c0-0.9-1.3-0.9-1.8-0.7
			C285.2,475.4,271.4,475.4,259.2,470.2z"/>
		<path class="st23" d="M226.6,527.2c0-0.4,0.3-0.7,0.7-0.7c0.4,0,0.7,0.3,0.7,0.7l-0.2,20.5c0,0.4-0.3,0.7-0.7,0.7
			c-0.4,0-0.7-0.3-0.7-0.7L226.6,527.2z"/>
		<path class="st23" d="M328.8,527.2c0-0.4,0.3-0.7,0.7-0.7c0.4,0,0.7,0.3,0.7,0.7l-0.2,20.5c0,0.4-0.3,0.7-0.7,0.7
			c-0.4,0-0.7-0.3-0.7-0.7L328.8,527.2z"/>
		<path class="st21" d="M260.8,472.5c0-0.3,0.2-0.5,0.5-0.5c0.3,0,0.5,0.2,0.5,0.5c0,0.7,0,1.3,0,2c0,1.3,0,2.6-0.2,4.2
			c-0.2,2.5-1.5,4.6-1.5,4.6c-0.1,0.2-0.5,0.3-0.7,0.2c-0.2-0.1-0.3-0.5-0.1-0.7c0,0,1.2-1.9,1.4-4.1c0.1-1.6,0.1-2.9,0.2-4.1
			C260.7,473.9,260.8,473.2,260.8,472.5z"/>
		<path class="st21" d="M264.8,474c0-0.3,0.2-0.5,0.5-0.5c0.3,0,0.5,0.2,0.5,0.5c0,0.7,0,1.3,0,2c0,1.3,0,2.6-0.2,4.2
			c-0.2,2.5-1.5,4.6-1.5,4.6c-0.1,0.2-0.5,0.3-0.7,0.2c-0.2-0.1-0.3-0.5-0.1-0.7c0,0,1.2-1.9,1.4-4.1c0.1-1.6,0.1-2.9,0.2-4.1
			C264.8,475.3,264.8,474.6,264.8,474z"/>
		<path class="st21" d="M269.1,474.8c0-0.3,0.2-0.5,0.5-0.5c0.3,0,0.5,0.2,0.5,0.5c0,0.7,0,1.3,0,2c0,1.3,0,2.6-0.2,4.2
			c-0.2,2.5-1.5,4.6-1.5,4.6c-0.1,0.2-0.5,0.3-0.7,0.2c-0.2-0.1-0.3-0.5-0.1-0.7c0,0,1.2-1.9,1.4-4.1c0.1-1.6,0.1-2.9,0.2-4.1
			C269.1,476.1,269.1,475.4,269.1,474.8z"/>
		<path class="st21" d="M273.5,475.6c0-0.3,0.2-0.5,0.5-0.5c0.3,0,0.5,0.2,0.5,0.5c0,0.7,0,1.3,0,2c0,1.3,0,2.6-0.2,4.2
			c-0.2,2.5-1.5,4.6-1.5,4.6c-0.1,0.2-0.5,0.3-0.7,0.1c-0.2-0.1-0.3-0.5-0.1-0.7c0,0,1.2-1.9,1.4-4.1c0.1-1.6,0.1-2.9,0.2-4.1
			C273.5,476.9,273.5,476.2,273.5,475.6z"/>
		<path class="st21" d="M294.4,472.6c0-0.3,0.2-0.5,0.5-0.5c0.3,0,0.5,0.2,0.5,0.5c0,0.7,0,1.3,0,2c0,1.3,0,2.6,0.2,4.1
			c0.2,2.2,1.4,4.1,1.4,4.1c0.1,0.2,0.1,0.5-0.2,0.7c-0.2,0.1-0.5,0.1-0.7-0.2c0,0-1.3-2.1-1.5-4.6c-0.1-1.6-0.1-2.9-0.2-4.2
			C294.4,473.9,294.4,473.2,294.4,472.6z"/>
		<path class="st21" d="M290.3,474c0-0.3,0.2-0.5,0.5-0.5c0.3,0,0.5,0.2,0.5,0.5c0,0.7,0,1.3,0,2c0,1.3,0,2.6,0.2,4.1
			c0.2,2.2,1.4,4.1,1.4,4.1c0.1,0.2,0.1,0.5-0.2,0.7c-0.2,0.1-0.5,0.1-0.7-0.2c0,0-1.3-2.1-1.5-4.6c-0.1-1.6-0.1-2.9-0.2-4.2
			C290.3,475.3,290.3,474.7,290.3,474z"/>
		<path class="st21" d="M286,474.8c0-0.3,0.2-0.5,0.5-0.5c0.3,0,0.5,0.2,0.5,0.5c0,0.7,0,1.3,0,2c0,1.3,0,2.6,0.2,4.1
			c0.2,2.2,1.4,4.1,1.4,4.1c0.1,0.2,0.1,0.5-0.2,0.7c-0.2,0.1-0.5,0.1-0.7-0.2c0,0-1.3-2.1-1.5-4.6c-0.1-1.6-0.1-2.9-0.2-4.2
			C286.1,476.1,286.1,475.5,286,474.8z"/>
		<path class="st21" d="M281.6,475.6c0-0.3,0.2-0.5,0.5-0.5c0.3,0,0.5,0.2,0.5,0.5c0,0.7,0,1.3,0,2c0,1.3,0,2.6,0.2,4.1
			c0.2,2.2,1.4,4.1,1.4,4.1c0.1,0.2,0.1,0.5-0.2,0.7c-0.2,0.1-0.5,0.1-0.7-0.1c0,0-1.3-2.1-1.5-4.6c-0.1-1.6-0.1-2.9-0.2-4.2
			C281.7,476.9,281.7,476.3,281.6,475.6z"/>
		<path class="st21" d="M277.6,475.6c0-0.3,0.2-0.5,0.5-0.5c0.3,0,0.5,0.2,0.5,0.5l0,10.5c0,0.3-0.2,0.5-0.5,0.5s-0.5-0.2-0.5-0.5
			L277.6,475.6z"/>
		<path class="st24" d="M251.2,368.7c-0.1-0.2,0-0.5,0.2-0.7s0.5,0,0.7,0.2c2.7,5.1,8.4,9.5,14.9,13c8.3,4.5,18,7.5,24.9,8.5
			c0.3,0,0.5,0.3,0.4,0.6c0,0.3-0.3,0.5-0.6,0.4c-7-1-16.8-4-25.2-8.6C259.9,378.5,254,373.9,251.2,368.7z"/>
		<path class="st24" d="M256.8,364.3c-0.3,0-0.5-0.2-0.5-0.5c0-0.3,0.2-0.5,0.5-0.5c8,0,15.4,1.4,22.2,3.6c8,2.6,15,6.5,21,10.7
			c6.3,4.4,11.3,9.4,15,15.5c3.6,6.1,5.9,13.2,6.4,21.8c0,0.3-0.2,0.5-0.5,0.5c-0.3,0-0.5-0.2-0.5-0.5c-0.6-8.5-2.7-15.5-6.3-21.4
			c-3.6-5.9-8.5-10.8-14.7-15.2c-5.9-4.2-12.8-8-20.7-10.6C272,365.7,264.6,364.3,256.8,364.3z"/>
		<path class="st24" d="M260.4,359.8c-0.2,0.1-0.5,0-0.7-0.2c-0.1-0.2,0-0.5,0.2-0.7c20.4-9.4,33.6,0,45,8c2.8,2,5.5,3.9,8.2,5.4
			c0.2,0.1,0.3,0.4,0.2,0.7c-0.1,0.2-0.4,0.3-0.7,0.2c-2.7-1.5-5.4-3.5-8.3-5.5C293.2,359.8,280.2,350.7,260.4,359.8z"/>
		<path class="st24" d="M247.1,377c0-0.3,0.2-0.5,0.5-0.5c0.3,0,0.5,0.2,0.5,0.5c0.1,2.7-0.6,6.4-1.9,10.2c-1.3,3.6-3,7.2-5,9.7
			c-3.8,4.9-3.9,10.8-3.9,10.9c0,0.3-0.2,0.5-0.5,0.5c-0.3,0-0.5-0.2-0.5-0.5c0,0,0.1-6.3,4.1-11.5c1.9-2.4,3.6-5.9,4.9-9.4
			C246.5,383.2,247.3,379.5,247.1,377z"/>
	</g>
</g>
<g>
	<g>
		<path class="st1" d="M703,547.8h-71c-0.8-36.3,27.1-57.4,51.1-65.2c1.9-10.1,1.4-23.3,1.4-23.3H703h18.4c0,0-0.5,13.1,1.4,23.3
			c24,7.9,51.9,28.9,51.1,65.2H703z"/>
		<path class="st2" d="M721.7,472.3c-2.3,4.4-10.4,8.6-18.7,8.7c-8.1,0.1-16.4-3.9-18.7-8.1c0.2-3.3,0.3-6.5,0.3-8.9h36.8
			C721.5,466.3,721.5,469.2,721.7,472.3z"/>
		<path class="st1" d="M664,430.2c-0.2-1.9-7.9-4.1-10.5,2.1c-2.6,6.2,2.1,15,10.9,15.7c8.8,0.7,6.2-0.9,6.2-0.9L664,430.2z"/>
		<path class="st25" d="M703,547.8h-2.6h-2.6h-2.6h-2.6H690h-2.6h-2.6h-2.6h-2.6h-2.6h-2.6h-2.6H669h-2.6h-2.6h-2.6h-2.6H656h-2.6
			h-2.6h-2.6h-2.6h-2.6h-2.6h-2.6H635h-2.6h-0.3c-0.7-29.4,17.6-48.8,37.2-59.3c0.9-0.5,1.8-0.9,2.6-1.3c3.7-1.8,7.5-3.4,11.2-4.6
			c0.1-0.5,0.2-1,0.3-1.5c8,3.5,23,7.5,39.3,0.5c0.1,0.4,0.1,0.7,0.2,1.1c3.6,1.2,7.4,2.7,11.1,4.5c0.9,0.5,1.9,1,2.9,1.5
			c19.6,10.5,37.8,29.9,37.1,59.3h-0.3h-2.6h-2.6h-2.6h-2.6h-2.6H758h-2.6h-2.6h-2.6h-2.6h-2.6h-2.6h-2.6h-2.6h-2.6h-2.6h-2.6h-2.6
			H724h-2.6h-2.6h-2.6h-2.6h-2.6h-2.6h-2.6H703z"/>
		<path class="st1" d="M742.3,430.2c0.2-1.9,7.9-4.1,10.5,2.1s-2.1,15-10.9,15.7c-8.8,0.7-6.2-0.9-6.2-0.9L742.3,430.2z"/>
		<path class="st1" d="M703,472c-45.8,1.1-68.9-111.8,0-108.9C771.9,360.2,748.8,473.1,703,472z"/>
		<path class="st2" d="M750,437.1c0,0.3-0.2,0.5-0.5,0.5c-0.3,0-0.5-0.2-0.5-0.5c0-1.5-0.3-2.5-0.7-3c-0.3-0.3-0.6-0.5-0.9-0.5
			c-0.4,0-0.9,0.1-1.4,0.4c-1.3,0.7-2.7,2.3-3.4,4c-0.4,0.8-0.7,1.7-0.8,2.3c0.8-0.5,1.6-0.7,2.3-0.7c0.4,0,0.8,0.2,1.1,0.4
			c0.3,0.2,0.5,0.5,0.7,0.9c0.2,0.7,0,1.6-0.7,2.7c-0.2,0.2-0.5,0.3-0.7,0.1c-0.2-0.2-0.3-0.5-0.1-0.7c0.5-0.8,0.7-1.4,0.6-1.9
			c-0.1-0.2-0.2-0.3-0.3-0.4c-0.2-0.1-0.4-0.2-0.6-0.2c-0.6-0.1-1.4,0.2-2.1,0.9c-0.2,0.2-0.3,0.3-0.5,0.3c-0.4,0.1-0.6-0.1-0.7-0.5
			l0,0c0-0.1,0-0.3,0-0.6c0.1-0.7,0.5-2,1.1-3.1c0.8-1.9,2.3-3.6,3.8-4.5c0.6-0.4,1.3-0.6,1.9-0.5c0.6,0,1.2,0.3,1.7,0.8
			C749.7,434.2,750,435.4,750,437.1z"/>
		<path class="st2" d="M657.1,437.1c0,0.3-0.2,0.5-0.5,0.5s-0.5-0.2-0.5-0.5c0-1.8,0.3-2.9,0.9-3.6c0.5-0.6,1-0.8,1.7-0.8
			c0.6,0,1.2,0.2,1.9,0.5c1.5,0.8,3,2.6,3.8,4.5c0.5,1.2,0.9,2.4,1.1,3.1c0,0.2,0,0.4,0,0.6l0,0c-0.1,0.4-0.3,0.6-0.7,0.5
			c-0.2,0-0.3-0.1-0.5-0.3c-0.7-0.7-1.5-1-2.1-0.9c-0.2,0-0.4,0.1-0.6,0.2c-0.1,0.1-0.2,0.2-0.3,0.4c-0.1,0.4,0,1,0.6,1.9
			c0.2,0.2,0.1,0.5-0.1,0.7c-0.2,0.2-0.5,0.1-0.7-0.1c-0.7-1.1-0.9-2-0.7-2.7c0.1-0.4,0.4-0.7,0.7-0.9c0.3-0.2,0.7-0.3,1.1-0.4
			c0.7-0.1,1.6,0.1,2.3,0.7c-0.2-0.6-0.5-1.5-0.8-2.3c-0.7-1.7-2.1-3.3-3.4-4c-0.5-0.3-0.9-0.4-1.4-0.4c-0.4,0-0.7,0.1-0.9,0.5
			C657.3,434.7,657.1,435.6,657.1,437.1z"/>
		<path class="st23" d="M651.3,527.2c0-0.4,0.3-0.7,0.7-0.7c0.4,0,0.7,0.3,0.7,0.7l-0.2,20.5c0,0.4-0.3,0.7-0.7,0.7
			c-0.4,0-0.7-0.3-0.7-0.7L651.3,527.2z"/>
		<path class="st23" d="M753.5,527.2c0-0.4,0.3-0.7,0.7-0.7c0.4,0,0.7,0.3,0.7,0.7l-0.2,20.5c0,0.4-0.3,0.7-0.7,0.7
			c-0.4,0-0.7-0.3-0.7-0.7L753.5,527.2z"/>
		<path class="st26" d="M660.7,421.9c0.6-2.4,1.6-9.2,1.7-8.2c1.1,20.9,9.2,34.5,16.8,40.5c7.4,5.9-4.1-14.7,23.1-14.4
			c0.3,0,0.5,0,0.8,0c0.3,0,0.5,0,0.8,0c27.3-0.3,15.7,20.3,23.1,14.4c7.5-6,15.7-19.7,16.8-40.5c0.1-1.1,1.1,5.8,1.7,8.2
			c-4.3,26-20.8,50.6-42.3,50.1C681.5,472.5,665,447.8,660.7,421.9z"/>
		<path class="st26" d="M662.3,429.4c0.6-1.6,0.9-5,0.8-9.4c-0.1-6.1,8.4-9.1,7.3-17.8c-3-25.6,16.9-16.9,32.5-16.9v-22.2l0,0
			C663.4,361.4,654.2,398.2,662.3,429.4z"/>
		<path class="st26" d="M743.9,428.9c-0.5-1.7-0.8-4.8-1-8.9c-0.2-6.1-8.3-9.1-7.3-17.8c3-25.6-16.9-16.9-32.5-16.9v-22.2
			C742.5,361.4,751.8,397.8,743.9,428.9z"/>
		<path class="st5" d="M687.7,419.6c1.8,1.3,2.3,3.9,0.9,5.7c-1.3,1.8-3.9,2.2-5.7,0.9c-1.8-1.3-2.3-3.9-0.9-5.7
			C683.3,418.7,685.8,418.3,687.7,419.6z"/>
		<path class="st5" d="M718.7,419.6c-1.8,1.3-2.3,3.9-0.9,5.7c1.3,1.8,3.9,2.2,5.7,0.9c1.8-1.3,2.3-3.9,0.9-5.7
			C723.1,418.7,720.5,418.3,718.7,419.6z"/>
		<path class="st6" d="M682.6,434.5c2.3,1.8,2.4,4.4,0.2,5.9c-2.2,1.4-5.9,1.2-8.2-0.6c-2.3-1.8-2.4-4.4-0.2-5.9
			S680.3,432.7,682.6,434.5z"/>
		<path class="st6" d="M723.7,434.5c-2.3,1.8-2.4,4.4-0.2,5.9c2.2,1.4,5.9,1.2,8.2-0.6c2.3-1.8,2.4-4.4,0.2-5.9
			C729.8,432.4,726.1,432.7,723.7,434.5z"/>
		<path class="st7" d="M689.5,408.5c-0.2-0.1-0.3-0.1-0.5-0.2c-1.8-0.6-3.3-0.8-5.2-0.7c-1.9,0.2-3.3,0.6-4.9,1.5
			c-0.7,0.5-3.6,2.8-2.8,3.7c0.3,0.1,3.2-1.4,4.1-1.7c1.3-0.4,2.4-0.5,3.8-0.5c1.3,0.1,2.3,0.2,3.5,0.7c0,0,0.2,0.1,0.3,0.1
			c2.4,1.2,2.2,1.9,3.8,0.8C694,410.9,691.4,409.5,689.5,408.5z"/>
		<path class="st7" d="M716.6,408.5c0.2-0.1,0.3-0.1,0.5-0.2c1.8-0.6,3.3-0.8,5.2-0.7c1.9,0.2,3.3,0.6,4.9,1.5
			c0.7,0.5,3.6,2.8,2.8,3.7c-0.3,0.1-3.2-1.4-4.1-1.7c-1.3-0.4-2.4-0.5-3.8-0.5c-1.3,0.1-2.3,0.2-3.5,0.7c0,0-0.2,0.1-0.3,0.1
			c-2.4,1.2-2.2,1.9-3.8,0.8C712.1,410.9,714.7,409.5,716.6,408.5z"/>
		<path class="st2" d="M700.9,457c-0.2-0.1-0.3-0.4-0.2-0.7c0.1-0.2,0.4-0.3,0.7-0.2c0.7,0.4,1.6,0.6,2.4,0.6c0.9,0,1.7-0.2,2.4-0.6
			c0.2-0.1,0.5-0.1,0.7,0.2c0.1,0.2,0.1,0.5-0.2,0.7c-0.8,0.5-1.9,0.7-2.9,0.7C702.8,457.7,701.7,457.5,700.9,457z"/>
		<path class="st2" d="M702.7,439c-0.3,0-0.5-0.2-0.5-0.5c0-0.3,0.2-0.5,0.5-0.5c1.2,0,2.6,0,3.7-0.2c0.9-0.2,1.6-0.4,1.6-0.8
			c0-1.4-1.4-10.3-1.5-10.3c0-0.3,0.1-0.5,0.4-0.6c0.3,0,0.5,0.1,0.6,0.4c0,0,1.5,9,1.5,10.5c0,1-1,1.6-2.4,1.8
			C705.4,439,703.9,439,702.7,439z"/>
		<path class="st0" d="M684.2,410.1c4,0,7.7,1.6,10.4,4.3c2.7,2.7,4.3,6.3,4.3,10.4c0,4-1.6,7.7-4.3,10.4c-2.7,2.7-6.3,4.3-10.4,4.3
			c-4.1,0-7.7-1.6-10.4-4.3c-2.7-2.7-4.3-6.3-4.3-10.4c0-4.1,1.6-7.7,4.3-10.4C676.5,411.8,680.2,410.1,684.2,410.1L684.2,410.1z
			 M692.9,416.2c-2.2-2.2-5.3-3.6-8.6-3.6c-3.4,0-6.4,1.4-8.6,3.6c-2.2,2.2-3.6,5.3-3.6,8.6c0,3.4,1.4,6.4,3.6,8.6
			c2.2,2.2,5.3,3.6,8.6,3.6c3.4,0,6.4-1.4,8.6-3.6c2.2-2.2,3.6-5.3,3.6-8.6S695.1,418.4,692.9,416.2z"/>
		<path class="st0" d="M721.9,410.1c4.1,0,7.7,1.6,10.4,4.3c2.7,2.7,4.3,6.3,4.3,10.4c0,4-1.6,7.7-4.3,10.4
			c-2.7,2.7-6.3,4.3-10.4,4.3c-4.1,0-7.7-1.6-10.4-4.3c-2.7-2.7-4.3-6.3-4.3-10.4c0-4.1,1.6-7.7,4.3-10.4
			C714.1,411.8,717.8,410.1,721.9,410.1L721.9,410.1z M730.5,416.2c-2.2-2.2-5.3-3.6-8.6-3.6c-3.4,0-6.4,1.4-8.6,3.6
			c-2.2,2.2-3.6,5.3-3.6,8.6c0,3.4,1.4,6.4,3.6,8.6c2.2,2.2,5.3,3.6,8.6,3.6c3.4,0,6.4-1.4,8.6-3.6c2.2-2.2,3.6-5.3,3.6-8.6
			C734.1,421.4,732.7,418.4,730.5,416.2z"/>
		<path class="st0" d="M670.4,423.6c0.5-0.2,1.1,0.1,1.3,0.6c0.2,0.5-0.1,1.1-0.6,1.3l-8.7,3.1c-0.5,0.2-1.1-0.1-1.3-0.6
			c-0.2-0.5,0.1-1.1,0.6-1.3L670.4,423.6z"/>
		<path class="st0" d="M735.1,425.4c-0.5-0.2-0.8-0.8-0.6-1.3c0.2-0.5,0.8-0.8,1.3-0.6l8.7,3.1c0.5,0.2,0.8,0.8,0.6,1.3
			c-0.2,0.5-0.8,0.8-1.3,0.6L735.1,425.4z"/>
		<path class="st0" d="M697.9,423.6c-0.3,0.5-0.9,0.6-1.4,0.3c-0.5-0.3-0.6-0.9-0.3-1.4c0,0,1.7-2.9,6.9-2.9c5.2,0,6.9,2.8,6.9,2.9
			c0.3,0.5,0.1,1.1-0.3,1.4c-0.5,0.3-1.1,0.1-1.4-0.3c0,0-1.1-1.9-5.2-1.9C699,421.7,697.9,423.6,697.9,423.6z"/>
		<path class="st8" d="M718.6,443.7c-6.2,2.3-25.2,2.3-31.1,0.3C690.8,455.8,715.4,455.7,718.6,443.7z"/>
		<path class="st27" d="M663.9,386c3,0.5,8.8,0.6,11.8-0.5c6.5-3.4,13.7,1,27.4,0.9c6.3,0,22.9-1.4,28.6-8.1
			c2.9-3.4,1.4,2.5-4.2,6.3c3.3,1.2,10.8,2.6,14.8,1.7c-5.9-14.1-18.3-23.9-39.3-23l0,0C682.2,362.2,669.8,372,663.9,386z"/>
		<path class="st28" d="M677.3,484.3c0-0.8,0.7-1.5,1.5-1.5s1.5,0.7,1.5,1.5c0,9.1,3,19.1,7.6,26.7c4.1,6.7,9.5,11.4,15.2,11.4
			c5.8,0,11.2-4.6,15.4-11.3c4.5-7.3,7.4-17.2,7.4-26.8c0-0.8,0.7-1.5,1.5-1.5c0.8,0,1.5,0.7,1.5,1.5c0,10.1-3,20.5-7.8,28.3
			c-4.7,7.6-11,12.8-17.9,12.8c-6.8,0-13.1-5.3-17.7-12.9C680.5,504.6,677.3,493.9,677.3,484.3z"/>
	</g>
</g>
<g>
	<g>
		<path class="st29" d="M486.8,362.4c0,0,17.4-0.1,12.9-15.2c-5.8-19.2-41.2-14.4-42.3,10.5c-1,24.9-6,35.7-12.1,43.9
			c-6,8.1-19.7,24.7-8.1,54.6c11.6,29.9-5.3,34.7-5.3,34.7c2.7-0.2,10,2.3,14.5,1.4c12.3-2.5,31.9-11.2,31.7-17.4
			C477.2,448,500.7,433.3,486.8,362.4z"/>
		<path class="st30" d="M490.3,369.8c8.1,0,14.8-5.8,14.8-12.9c0-7.1-6.6-12.9-14.8-12.9c-8.1,0-14.8,5.8-14.8,12.9
			C475.5,364,482.1,369.8,490.3,369.8z"/>
		<path class="st1" d="M451.6,426.8c-0.2-1.9-7.9-4.1-10.5,2.1c-2.6,6.2,2.1,15,10.9,15.7c8.8,0.7,6.2-0.9,6.2-0.9L451.6,426.8z"/>
		<path class="st1" d="M529.9,426.8c0.2-1.9,7.9-4.1,10.5,2.1c2.6,6.2-2.1,15-10.9,15.7c-8.8,0.7-6.2-0.9-6.2-0.9L529.9,426.8z"/>
		<path class="st1" d="M490.7,547.8h-71c-0.8-36.3,27.1-57.4,51.1-65.2c1.9-10.1,1.4-23.3,1.4-23.3h18.4h18.5c0,0-0.5,13.1,1.4,23.3
			c24,7.9,51.9,28.9,51.1,65.2H490.7z"/>
		<path class="st2" d="M509.1,459.3c0,0-0.1,2.6,0,6.4c-7,17.6-28.8,19.6-36.8,0.7c0.1-4.2,0-7.1,0-7.1
			C484.5,459.3,496.8,459.3,509.1,459.3z"/>
		<path class="st30" d="M564.1,547.8c0.8-35.8-27.3-56.8-51.9-64.9c-10.4,23-32.8,22.4-42.8-0.1c-24.6,8-52.9,29.1-52.1,65H564.1z"
			/>
		<path class="st1" d="M490.7,468.6c-45.8,1.1-68.9-111.8,0-108.9C559.6,356.9,536.5,469.7,490.7,468.6z"/>
		<path class="st5" d="M475.3,414.1c1.8,1.3,2.3,3.9,0.9,5.7c-1.3,1.8-3.9,2.2-5.7,0.9c-1.8-1.3-2.3-3.9-0.9-5.7
			C470.9,413.2,473.5,412.8,475.3,414.1z"/>
		<path class="st5" d="M506.3,414.1c-1.8,1.3-2.3,3.9-0.9,5.7c1.3,1.8,3.9,2.2,5.7,0.9c1.8-1.3,2.3-3.9,0.9-5.7
			C510.7,413.2,508.2,412.8,506.3,414.1z"/>
		<path class="st6" d="M470.3,429c2.3,1.8,2.4,4.4,0.2,5.9c-2.2,1.4-5.9,1.2-8.2-0.6c-2.3-1.8-2.4-4.4-0.2-5.9
			C464.2,427,467.9,427.2,470.3,429z"/>
		<path class="st6" d="M511.4,429c-2.3,1.8-2.4,4.4-0.2,5.9c2.2,1.4,5.9,1.2,8.2-0.6c2.3-1.8,2.4-4.4,0.2-5.9
			C517.4,427,513.7,427.2,511.4,429z"/>
		<path class="st7" d="M477.1,403c-0.2-0.1-0.3-0.1-0.5-0.2c-1.8-0.6-3.3-0.8-5.2-0.7c-1.9,0.2-3.3,0.6-4.9,1.5
			c-0.7,0.5-3.6,2.8-2.8,3.7c0.3,0.1,3.2-1.4,4.1-1.7c1.3-0.4,2.4-0.5,3.8-0.5c1.3,0.1,2.3,0.2,3.5,0.7c0,0,0.2,0.1,0.3,0.1
			c2.4,1.2,2.2,1.9,3.8,0.8C481.7,405.5,479.1,404,477.1,403z"/>
		<path class="st7" d="M504.3,403c0.2-0.1,0.3-0.1,0.5-0.2c1.8-0.6,3.3-0.8,5.2-0.7c1.9,0.2,3.3,0.6,4.9,1.5
			c0.7,0.5,3.6,2.8,2.8,3.7c-0.3,0.1-3.2-1.4-4.1-1.7c-1.3-0.4-2.4-0.5-3.8-0.5c-1.3,0.1-2.3,0.2-3.5,0.7c0,0-0.2,0.1-0.3,0.1
			c-2.4,1.2-2.2,1.9-3.8,0.8C499.7,405.5,502.3,404,504.3,403z"/>
		<path class="st8" d="M482.4,438.6c3-0.1,6.1-0.1,9.1-0.1c3,0,6,0,9.1,0.1c0,6.6-4.7,9-9.1,9h0h0
			C487.1,447.6,482.4,445.2,482.4,438.6z"/>
		<path class="st31" d="M499.9,442.3c-1.4,3.8-5,5.3-8.4,5.3h0h0c-3.4,0-7-1.4-8.4-5.3c2.8,0,5.6-0.1,8.5-0.1
			C494.3,442.3,497.1,442.3,499.9,442.3z"/>
		<path class="st2" d="M488.5,451.5c-0.2-0.1-0.3-0.4-0.2-0.7c0.1-0.2,0.4-0.3,0.7-0.2c0.7,0.4,1.6,0.6,2.4,0.6
			c0.9,0,1.7-0.2,2.4-0.6c0.2-0.1,0.5-0.1,0.7,0.2s0.1,0.5-0.2,0.7c-0.8,0.5-1.9,0.7-2.9,0.7C490.4,452.3,489.4,452,488.5,451.5z"/>
		<path class="st2" d="M490.3,429.5c-0.3,0-0.5-0.2-0.5-0.5c0-0.3,0.2-0.5,0.5-0.5c1.2,0,2.6,0,3.7-0.2c0.9-0.2,1.6-0.4,1.6-0.8
			c0-1.4-1.4-10.3-1.5-10.3c0-0.3,0.1-0.5,0.4-0.6c0.3,0,0.5,0.1,0.6,0.4c0,0,1.5,9,1.5,10.5c0,1-1,1.6-2.4,1.8
			C493,429.5,491.5,429.5,490.3,429.5z"/>
		<path class="st2" d="M537.7,433.8c0,0.3-0.2,0.5-0.5,0.5c-0.3,0-0.5-0.2-0.5-0.5c0-1.5-0.3-2.5-0.7-3c-0.3-0.3-0.6-0.5-0.9-0.5
			c-0.4,0-0.9,0.1-1.4,0.4c-1.3,0.7-2.6,2.3-3.4,4c-0.4,0.8-0.7,1.7-0.8,2.3c0.8-0.5,1.6-0.7,2.3-0.7c0.4,0,0.8,0.2,1.1,0.4
			c0.3,0.2,0.5,0.5,0.7,0.9c0.2,0.7,0,1.6-0.7,2.7c-0.2,0.2-0.5,0.3-0.7,0.1c-0.2-0.2-0.3-0.5-0.1-0.7c0.5-0.8,0.7-1.4,0.6-1.9
			c-0.1-0.2-0.2-0.3-0.3-0.4c-0.2-0.1-0.4-0.2-0.6-0.2c-0.6-0.1-1.4,0.2-2.1,0.9c-0.2,0.2-0.3,0.3-0.5,0.3c-0.4,0.1-0.6-0.1-0.7-0.5
			l0,0c0-0.1,0-0.3,0-0.6c0.1-0.7,0.5-2,1.1-3.1c0.8-1.9,2.3-3.6,3.8-4.5c0.6-0.4,1.3-0.6,1.9-0.5c0.6,0,1.2,0.3,1.7,0.8
			C537.3,430.9,537.7,432,537.7,433.8z"/>
		<path class="st2" d="M444.7,433.8c0,0.3-0.2,0.5-0.5,0.5c-0.3,0-0.5-0.2-0.5-0.5c0-1.8,0.3-2.9,0.9-3.6c0.5-0.6,1-0.8,1.7-0.8
			c0.6,0,1.2,0.2,1.9,0.5c1.5,0.8,3,2.6,3.8,4.5c0.5,1.2,0.9,2.4,1.1,3.1c0,0.2,0,0.4,0,0.6l0,0c-0.1,0.4-0.3,0.6-0.7,0.5
			c-0.2,0-0.3-0.1-0.5-0.3c-0.7-0.7-1.5-1-2.1-0.9c-0.2,0-0.4,0.1-0.6,0.2c-0.1,0.1-0.2,0.2-0.3,0.4c-0.1,0.4,0,1,0.6,1.9
			c0.2,0.2,0.1,0.5-0.1,0.7c-0.2,0.2-0.5,0.1-0.7-0.1c-0.7-1.1-0.9-2-0.7-2.7c0.1-0.4,0.4-0.7,0.7-0.9c0.3-0.2,0.7-0.3,1.1-0.4
			c0.7-0.1,1.5,0.1,2.3,0.7c-0.2-0.6-0.5-1.5-0.8-2.3c-0.7-1.7-2.1-3.3-3.4-4c-0.5-0.3-0.9-0.4-1.4-0.4c-0.4,0-0.7,0.2-0.9,0.5
			C445,431.3,444.7,432.3,444.7,433.8z"/>
		<path class="st12" d="M449.4,425.9c-30.9-94.9,111.3-97.6,82.2-0.5c-2.7,8-8.3-28.3-8.3-28.5c-0.1-2.4-4.7-14.1-10.5-15.3
			c-18.1-3.8-54.5,8-54.7,15.3c0,0.3-2.5,13-5,21.7C451.3,424.6,450.3,429.4,449.4,425.9z"/>
		<path class="st12" d="M531.7,424.9c-0.2,1.7-5.6,31.3-5.6,31.5c-2.5-6.5,1.2-24.6,1.9-31.9c0.2-4-0.6-10.3,1.3-10.1
			C531.9,413.2,531.8,422.9,531.7,424.9z"/>
		<path class="st12" d="M449.3,424.6c0.2,1.7,5.9,31.6,6,31.8c2.5-6.5-1.2-24.6-1.9-31.9c-0.2-4,0.6-10.3-1.3-10.1
			C449.5,413.2,449.2,422.7,449.3,424.6z"/>
		<path class="st14" d="M493.9,387.6c0.8,3.2-7.5,11.8-5.6,12.8c3.1,1.7,15.8-1.1,24.7-11.2c1.1-1.3,1.3,3.3,4.5,7.1
			c3.6,4.3,10.3,8,12.3,9.3c1.9,1.3,2,0.7,2.5-2c2-10.7-4.3-42.9-41.5-42.9c-41.8,0-44.7,40.6-40.4,45.8c10.8-2,28.7-19.5,26.8-16.6
			c-2.1,3-11.7,11-9.1,11C482.1,401,493.8,387.4,493.9,387.6z"/>
		<path class="st1" d="M490.7,525.9c1.4,0,2.5-5.3,2.5-11.7c0-6.4-1.1-11.7-2.5-11.7c-1.4,0-2.5,5.3-2.5,11.7
			C488.2,520.7,489.3,525.9,490.7,525.9z"/>
		<path class="st32" d="M438.9,527.2c0-0.4,0.3-0.7,0.7-0.7c0.4,0,0.7,0.3,0.7,0.7l-0.2,20.5c0,0.4-0.3,0.7-0.7,0.7
			c-0.4,0-0.7-0.3-0.7-0.7L438.9,527.2z"/>
		<path class="st32" d="M541.1,527.2c0-0.4,0.3-0.7,0.7-0.7c0.4,0,0.7,0.3,0.7,0.7l-0.2,20.5c0,0.4-0.3,0.7-0.7,0.7
			c-0.4,0-0.7-0.3-0.7-0.7L541.1,527.2z"/>
		<path class="st33" d="M457.8,396.3c-0.2,0.2-0.5,0.1-0.7-0.1c-0.2-0.2-0.1-0.5,0.1-0.7c0.9-0.7,2.3-1.8,3.8-3
			c10-8,25-20,28.3-25.2c0.1-0.2,0.5-0.3,0.7-0.2c0.2,0.1,0.3,0.5,0.2,0.7c-3.4,5.4-18.5,17.4-28.5,25.4
			C460.3,394.2,459.2,395.1,457.8,396.3z"/>
		<path class="st33" d="M473.6,399c-0.2,0.2-0.5,0.1-0.7-0.1c-0.2-0.2-0.1-0.5,0.1-0.7c3.2-2.6,12.3-10.8,18.9-18.6
			c4-4.8,7.2-9.4,7.5-12.4c0-0.3,0.3-0.5,0.5-0.4c0.3,0,0.5,0.3,0.4,0.5c-0.4,3.3-3.6,8-7.8,12.9C486,388.2,476.8,396.5,473.6,399z"
			/>
		<path class="st33" d="M496.8,396.9c-0.2,0.2-0.5,0.2-0.7,0c-0.2-0.2-0.2-0.5,0-0.7c3.4-3.2,6.4-6.6,8.5-10.1
			c2-3.2,3.2-6.5,3.6-9.6c0.6-6.5,0.5-7.4,0.5-7.4c0-0.3,0.2-0.5,0.4-0.6c0.3,0,0.5,0.2,0.6,0.4c0,0,0.1,1-0.5,7.6
			c-0.3,3.2-1.6,6.6-3.7,10C503.3,390.2,500.3,393.7,496.8,396.9z"/>
		<path class="st33" d="M526.5,392.2c0,0.3-0.2,0.5-0.4,0.6c-0.3,0-0.5-0.2-0.6-0.4c-0.5-3.9-2-7.8-3.9-11.2c-3-5.4-6.5-9.4-7.4-9.7
			c-0.3-0.1-0.4-0.4-0.3-0.6c0.1-0.3,0.4-0.4,0.6-0.3c1,0.3,4.8,4.5,7.9,10.2C524.4,384.1,526,388.1,526.5,392.2z"/>
		<path class="st32" d="M499.9,353.7c0.1,0.3-0.1,0.5-0.3,0.6c-0.3,0.1-0.5-0.1-0.6-0.3c-0.6-1.9-1.4-3.8-2.1-5.3
			c-0.6-1.2-1.1-2-1.4-2.2c-0.3-0.1-0.4-0.4-0.3-0.6c0.1-0.3,0.4-0.4,0.6-0.3c0.5,0.2,1.2,1.3,1.9,2.7
			C498.5,349.8,499.3,351.8,499.9,353.7z"/>
		<path class="st32" d="M482.1,353.9c-0.1,0.3-0.4,0.4-0.6,0.3c-0.3-0.1-0.4-0.4-0.3-0.6c0.5-1.8,1.3-3.2,2.1-4.4
			c1.4-2,2.8-3.2,3.2-3.5c0.2-0.1,0.5,0,0.7,0.2c0.1,0.2,0,0.5-0.2,0.7c-0.3,0.2-1.6,1.3-2.9,3.2
			C483.3,350.8,482.6,352.2,482.1,353.9z"/>
		<path class="st32" d="M491.2,353.1c0,0.3-0.2,0.5-0.5,0.5c-0.3,0-0.5-0.2-0.5-0.5c0-1.6,0.5-7.1,0.5-7.1c0-0.3,0.3-0.5,0.5-0.4
			c0.3,0,0.5,0.3,0.4,0.5C491.7,346.1,491.2,351.4,491.2,353.1z"/>
		<path class="st32" d="M463.8,484.6c0-0.3,0.2-0.5,0.4-0.6c0.3,0,0.5,0.2,0.6,0.4c0.6,4.5,3.3,9.7,7.9,13.4c3.8,3,8.8,5,14.8,4.8
			c0.3,0,0.5,0.2,0.5,0.5c0,0.3-0.2,0.5-0.5,0.5c-6.3,0.2-11.5-1.9-15.4-5C467.3,494.8,464.4,489.3,463.8,484.6z"/>
		<path class="st32" d="M516.6,484.5c0-0.3,0.3-0.5,0.6-0.4c0.3,0,0.5,0.3,0.4,0.6c-0.6,4.7-3.5,10.2-8.3,14.1
			c-3.9,3.2-9.2,5.3-15.4,5c-0.3,0-0.5-0.2-0.5-0.5c0-0.3,0.2-0.5,0.5-0.5c6,0.2,11-1.8,14.8-4.8C513.3,494.2,516,489,516.6,484.5z"
			/>
	</g>
</g>
</svg>
