<?xml version="1.0" encoding="utf-8"?>
<!-- Generator: Adobe Illustrator 24.1.2, SVG Export Plug-In . SVG Version: 6.00 Build 0)  -->
<svg version="1.1" xmlns="http://www.w3.org/2000/svg" xmlns:xlink="http://www.w3.org/1999/xlink" x="0px" y="0px"
	 viewBox="0 0 175 125" style="enable-background:new 0 0 175 125;" xml:space="preserve">
<style type="text/css">
	.st0{display:none;}
	.st1{display:inline;}
	.st2{fill-rule:evenodd;clip-rule:evenodd;fill:#00A2D5;}
	.st3{fill-rule:evenodd;clip-rule:evenodd;fill:url(#XMLID_41_);}
	.st4{fill-rule:evenodd;clip-rule:evenodd;fill:url(#XMLID_65_);}
	.st5{fill-rule:evenodd;clip-rule:evenodd;fill:#004051;}
	.st6{fill-rule:evenodd;clip-rule:evenodd;fill:url(#XMLID_66_);}
	.st7{fill:#00283B;stroke:#00283B;stroke-width:5.670000e-02;stroke-miterlimit:10;}
	.st8{fill:#00283B;}
	.st9{fill:#00A2D5;}
	.st10{fill-rule:evenodd;clip-rule:evenodd;fill:url(#XMLID_67_);}
	.st11{fill-rule:evenodd;clip-rule:evenodd;fill:url(#XMLID_68_);}
	.st12{fill-rule:evenodd;clip-rule:evenodd;fill:url(#XMLID_69_);}
	.st13{fill-rule:evenodd;clip-rule:evenodd;fill:url(#XMLID_70_);}
	.st14{fill-rule:evenodd;clip-rule:evenodd;fill:url(#XMLID_71_);}
	.st15{fill-rule:evenodd;clip-rule:evenodd;fill:url(#XMLID_72_);}
	.st16{fill-rule:evenodd;clip-rule:evenodd;fill:url(#XMLID_73_);}
	.st17{fill-rule:evenodd;clip-rule:evenodd;fill:url(#XMLID_74_);}
	.st18{fill-rule:evenodd;clip-rule:evenodd;fill:url(#XMLID_75_);}
	.st19{fill-rule:evenodd;clip-rule:evenodd;fill:url(#XMLID_76_);}
	.st20{fill-rule:evenodd;clip-rule:evenodd;fill:url(#XMLID_77_);}
	.st21{fill-rule:evenodd;clip-rule:evenodd;fill:url(#XMLID_78_);}
	.st22{fill-rule:evenodd;clip-rule:evenodd;fill:url(#XMLID_79_);}
	.st23{fill-rule:evenodd;clip-rule:evenodd;fill:url(#XMLID_80_);}
	.st24{fill-rule:evenodd;clip-rule:evenodd;fill:url(#XMLID_81_);}
</style>
<g id="fr" class="st0">
</g>
<g id="Layer_6" class="st0">
</g>
<g id="Layer_3">
	<g>
		<g id="XMLID_42_">
			<path id="XMLID_64_" class="st2" d="M38.4,8.2c0,0,13.6,9,32.5,11.8c0,0,15.9,3.4,21.9,4.1c0,0,20.8,2.6,25.2,10.5
				c0,0,4.4,5.5,6.3,15.5c0,0,1.4-1.6,1.7-5.5c0,0,0-5.2,6.1-5.1c0,0,1.7-0.1,2.5,2.7c0,0,0.5,2.2,3,3.6c0,0,0.2,0.6-0.9,0.8
				c0,0-0.3,0.5,0.3,0.8c0,0,0.3,0-0.4,0.5c0,0-0.1,0.2,0.5,0.2c0,0,0.3-0.1-0.2,0.5c0,0-0.2,0.3,0.7,0.4c0,0,0.3,1.1-1.5,1.4
				c0,0-4.6-0.1-6.4,5.4c0,0-0.9,3.3-1,5.6c0,0,0.6,4.4-7.8,4.9c0,0-4.5-0.2-15.8,3.8c0,0-12.8,4-19.8,5.5c0,0-4.9,2.2-3.1-1.3
				c0,0,0.5-0.7,0.3-4.3c0,0-5.1-0.1-6.3-0.3c0,0-1.5,0.3-3.6-0.9c0,0-8.4-3.3-12.7-4c0,0-4.2-1-6.4-1.3c0,0-4.8-0.3-7.1-1.7
				c0,0-0.9-0.9,0.9-1c0,0,3.8,0.8,6-0.3c0,0,1.7-1.8,3-0.9c0,0,1.3,1.8,2.7,2.6l8.2,0.4c0,0,0.3-0.1-1-0.7l-6.7-3.6
				c0,0-0.9-0.7-4.4-1l-4.4-0.4c0,0-1.1-0.3-0.2-0.9c0,0,2.2,0.3,5.7-1.5c0,0,3-2.7,3.7-0.6c0,0,0,2.3,3.6,3.3l9.2,3.1
				c0,0,1.9,0.8,3.1,2.2c0,0,1.4,1.5,5,1.1h0.6c0,0-0.5-0.9-0.6-2.2c0,0-0.7-3.5,2.1-2.9l17.6,3.2c0,0,4.8,1.3,9-0.4
				c0,0,3-1,3.3-1.2c0,0-4,1.2-8.1,0.9c0,0-8.6,0.6-25.3-11.1c0,0-14.6-8.6-17.9-12.5c0,0,13.6,6.2,18.1,7c0,0,9.7,3.4,20.4,4.8
				c0,0,6.1,1.4,13.4-0.9c0,0-7.3,1.1-14.3-0.2c0,0-10.3-1.2-25.2-7.5c0,0-11.7-4.9-21.9-13.6c0,0-3.6-3.1-6.7-7.3
				c0,0,10,6.9,26.1,10.9c0,0,7.4,2.4,20.4,4.8c0,0,4.5,1,10.1,0.7c0,0-8.6-1.5-11.4-2.2c-2.8-0.6-8.9-1.8-16.8-4.2
				c0,0-6.1-1.1-21-9.2C52.9,20.4,42.2,14.4,38.4,8.2z"/>
			<linearGradient id="XMLID_41_" gradientUnits="userSpaceOnUse" x1="55.4289" y1="41.0667" x2="107.1812" y2="25.6785">
				<stop  offset="0" style="stop-color:#00283B"/>
				<stop  offset="0.54" style="stop-color:#00273A"/>
				<stop  offset="0.8" style="stop-color:#00A2D5"/>
				<stop  offset="1" style="stop-color:#00A2D5"/>
			</linearGradient>
			<path id="XMLID_63_" class="st3" d="M113.7,48.1c0,0-7.3,1.1-14.3-0.2c0,0-10.3-1.2-25.2-7.5c0,0-11.7-4.9-21.9-13.6
				c0,0-3.6-3.1-6.7-7.3c0,0,10,6.9,26.1,10.9c0,0,7.4,2.4,20.4,4.8c0,0,4.5,1,10.1,0.7c5.5-0.3,8.1,1.1,12,4.2
				C118,43.4,113.7,48.1,113.7,48.1z"/>
			<linearGradient id="XMLID_65_" gradientUnits="userSpaceOnUse" x1="50.2158" y1="32.3932" x2="107.5356" y2="13.662">
				<stop  offset="0" style="stop-color:#00283B"/>
				<stop  offset="0.37" style="stop-color:#00283B"/>
				<stop  offset="0.72" style="stop-color:#00A2D5"/>
				<stop  offset="1" style="stop-color:#00A2D5"/>
			</linearGradient>
			<path id="XMLID_62_" class="st4" d="M102.1,36c0,0-8.6-1.5-11.4-2.2c-2.8-0.6-8.9-1.8-16.8-4.2c0,0-6.1-1.1-21-9.2
				c0,0-10.7-6-14.5-12.2c0,0,13.6,9,32.5,11.8c0,0,15.9,3.4,21.9,4.1c0,0,20.8,2.6,25.2,10.5c4.4,7.8-10.4,1.5-10.4,1.5
				S105.8,35.1,102.1,36z"/>
			<path id="XMLID_59_" class="st5" d="M129,35.4c-3.2,0.4-5.8,1.1-5.7,1.5c0.1,0.5,2.7,0.5,5.9,0.1c3.2-0.4,5.8-1.1,5.7-1.5
				C134.8,35.1,132.2,35.1,129,35.4L129,35.4z M129,36.8L129,36.8c-2.5,0.3-4.5,0.3-4.5,0.1c0-0.2,2-0.7,4.4-1
				c2.5-0.3,4.5-0.3,4.5-0.1C133.5,36,131.5,36.5,129,36.8z"/>
			<linearGradient id="XMLID_66_" gradientUnits="userSpaceOnUse" x1="73.6884" y1="55.6129" x2="110.6332" y2="39.4568">
				<stop  offset="0" style="stop-color:#002637"/>
				<stop  offset="0.5" style="stop-color:#002E42"/>
				<stop  offset="0.82" style="stop-color:#00A2D5"/>
				<stop  offset="1" style="stop-color:#00A2D5"/>
			</linearGradient>
			<path id="XMLID_58_" class="st6" d="M113,60c0,0-4,1.2-8.1,0.9c0,0-8.6,0.6-25.3-11.1c0,0-14.6-8.6-17.9-12.5
				c0,0,13.6,6.2,18.1,7c0,0,9.7,3.4,20.4,4.8c0,0,6.1,1.4,13.4-0.9c7.3-2.3,6.8,8.8,6.8,8.8S119.1,61.6,113,60z"/>
		</g>
		<g>
			<path class="st7" d="M21.2,116.7c-0.5,0-1-0.1-1.4-0.3c-0.4-0.2-0.8-0.5-1.1-0.8l1.1-0.7c0.1,0.2,0.3,0.4,0.5,0.5
				c0.2,0.1,0.5,0.2,0.8,0.2c0.5,0,0.9-0.2,1.2-0.5s0.4-0.7,0.4-1.3v-6.2h1.4v6.2c0,0.9-0.3,1.7-0.8,2.2
				C22.9,116.5,22.1,116.7,21.2,116.7z"/>
			<path class="st7" d="M29.1,116.7c-0.9,0-1.6-0.2-2.1-0.7c-0.5-0.5-0.7-1.2-0.7-2.1v-1.1c0-0.9,0.2-1.6,0.7-2.1
				c0.5-0.5,1.2-0.7,2.1-0.7c0.9,0,1.6,0.2,2.1,0.7c0.5,0.5,0.7,1.2,0.7,2.1v1.1c0,0.9-0.2,1.6-0.7,2.1
				C30.8,116.5,30.1,116.7,29.1,116.7z M29.1,115.5c0.5,0,0.8-0.1,1.1-0.4c0.3-0.3,0.4-0.7,0.4-1.2v-1.1c0-0.5-0.1-0.9-0.4-1.2
				c-0.3-0.3-0.6-0.4-1.1-0.4c-0.5,0-0.8,0.1-1.1,0.4c-0.3,0.3-0.4,0.7-0.4,1.2v1.1c0,0.5,0.1,0.9,0.4,1.2
				C28.3,115.4,28.7,115.5,29.1,115.5z"/>
			<path class="st7" d="M33.9,116.6v-9h1.4v9H33.9z M37.1,116.7c-0.4,0-0.8-0.1-1.1-0.3c-0.3-0.2-0.6-0.5-0.7-0.8l0.1-1.4
				c0,0.3,0.1,0.5,0.2,0.7c0.1,0.2,0.3,0.3,0.5,0.4c0.2,0.1,0.4,0.2,0.7,0.2c0.5,0,0.8-0.1,1-0.4c0.2-0.3,0.4-0.6,0.4-1.1v-1.4
				c0-0.5-0.1-0.8-0.4-1.1c-0.2-0.3-0.6-0.4-1-0.4c-0.3,0-0.5,0-0.7,0.1s-0.4,0.2-0.5,0.4c-0.1,0.2-0.2,0.4-0.2,0.7l-0.1-1.2
				c0.2-0.4,0.5-0.7,0.8-0.9c0.3-0.2,0.7-0.3,1.1-0.3c0.7,0,1.3,0.2,1.7,0.7c0.4,0.5,0.6,1.1,0.6,1.9v1.4c0,0.8-0.2,1.5-0.6,1.9
				C38.4,116.5,37.8,116.7,37.1,116.7z"/>
			<path class="st7" d="M48,112.7c-0.6,0-1,0.1-1.3,0.4c-0.3,0.3-0.5,0.6-0.5,1.1c0,0.5,0.2,0.8,0.5,1.1c0.3,0.3,0.8,0.4,1.4,0.4
				c0.8,0,1.5-0.3,2-0.9c0.5-0.6,0.7-1.5,0.7-2.6H52c0,1-0.2,1.8-0.5,2.5c-0.3,0.7-0.8,1.2-1.5,1.6c-0.6,0.4-1.4,0.6-2.3,0.6
				c-0.9,0-1.6-0.2-2.1-0.7c-0.5-0.5-0.8-1.1-0.8-1.9c0-0.7,0.2-1.3,0.7-1.8c0.4-0.4,1.1-0.7,1.9-0.8L48,112.7z M51,116.6l-3.7-3.6
				c-0.5-0.4-0.8-0.9-1.1-1.4c-0.3-0.5-0.4-1-0.4-1.6c0-0.8,0.2-1.4,0.7-1.8c0.5-0.4,1.1-0.7,1.9-0.7c0.8,0,1.5,0.2,1.9,0.6
				c0.5,0.4,0.7,1,0.7,1.8v0.1h-1.4v-0.1c0-0.4-0.1-0.7-0.3-0.9c-0.2-0.2-0.5-0.3-0.9-0.3c-0.4,0-0.7,0.1-0.9,0.3
				c-0.2,0.2-0.3,0.5-0.3,0.9c0,0.4,0.1,0.7,0.3,1.1c0.2,0.4,0.5,0.8,0.8,1.1l4.5,4.4H51z"/>
			<path class="st7" d="M57.8,116.6v-9h1.4v9H57.8z M58.5,108.8v-1.2h5.6v1.2H58.5z M58.5,112.7v-1.2h4.9v1.2H58.5z M58.5,116.6
				v-1.2h5.6v1.2H58.5z"/>
			<path class="st7" d="M68.1,116.7c-0.8,0-1.4-0.2-1.8-0.7c-0.4-0.5-0.6-1.1-0.6-1.9v-1.4c0-0.8,0.2-1.5,0.6-1.9
				c0.4-0.5,1-0.7,1.7-0.7c0.4,0,0.8,0.1,1.1,0.3c0.3,0.2,0.6,0.5,0.8,0.8l-0.1,1.3c0-0.3-0.1-0.5-0.2-0.7c-0.1-0.2-0.3-0.3-0.5-0.4
				c-0.2-0.1-0.4-0.2-0.7-0.2c-0.5,0-0.8,0.1-1,0.4c-0.2,0.3-0.4,0.6-0.4,1.1v1.4c0,0.5,0.1,0.8,0.4,1.1c0.2,0.3,0.6,0.4,1,0.4
				c0.3,0,0.5-0.1,0.7-0.2c0.2-0.1,0.4-0.3,0.5-0.5c0.1-0.2,0.2-0.4,0.2-0.7l0.1,1.4c-0.1,0.3-0.3,0.6-0.6,0.8
				C69,116.6,68.6,116.7,68.1,116.7z M69.8,116.6v-9h1.4v9H69.8z"/>
			<path class="st7" d="M74.6,110.2v3.9c0,0.5,0.1,0.8,0.4,1s0.6,0.4,1,0.4c0.5,0,0.8-0.1,1-0.3c0.2-0.2,0.4-0.5,0.4-0.9l0.1,1.4
				c-0.1,0.3-0.3,0.6-0.7,0.8c-0.3,0.2-0.7,0.3-1.2,0.3c-0.8,0-1.4-0.2-1.8-0.7c-0.4-0.5-0.6-1.1-0.6-1.9v-3.9H74.6z M77.5,116.6
				v-6.5h1.4v6.5H77.5z"/>
			<path class="st7" d="M83.7,116.7c-1,0-1.7-0.2-2.2-0.7s-0.8-1.2-0.8-2.1v-1.1c0-0.9,0.3-1.6,0.8-2.1s1.3-0.7,2.2-0.7
				c0.5,0,1,0.1,1.5,0.3c0.4,0.2,0.8,0.4,1,0.8l-1,0.8c-0.2-0.2-0.4-0.4-0.7-0.5c-0.3-0.1-0.5-0.2-0.8-0.2c-0.5,0-0.9,0.1-1.2,0.4
				c-0.3,0.3-0.4,0.7-0.4,1.2v1.1c0,0.5,0.1,0.9,0.4,1.2c0.3,0.3,0.7,0.4,1.2,0.4c0.3,0,0.6-0.1,0.8-0.2c0.3-0.1,0.5-0.3,0.7-0.5
				l1,0.9c-0.3,0.3-0.6,0.6-1,0.7C84.7,116.6,84.2,116.7,83.7,116.7z"/>
			<path class="st7" d="M89.9,116.7c-0.9,0-1.5-0.2-1.9-0.5c-0.4-0.3-0.6-0.8-0.6-1.5c0-0.6,0.2-1.1,0.6-1.4c0.4-0.3,1-0.5,1.8-0.5
				h2l0.1,1h-2.1c-0.4,0-0.6,0.1-0.8,0.2c-0.2,0.1-0.3,0.4-0.3,0.7c0,0.3,0.1,0.6,0.4,0.7c0.2,0.2,0.6,0.2,1.1,0.2
				c0.5,0,0.9-0.1,1.2-0.2c0.3-0.1,0.4-0.3,0.4-0.5l0.1,0.9c-0.1,0.2-0.3,0.3-0.4,0.4c-0.2,0.1-0.4,0.2-0.6,0.3
				C90.5,116.7,90.2,116.7,89.9,116.7z M91.6,116.6v-4.1c0-0.4-0.1-0.8-0.4-1c-0.2-0.2-0.6-0.4-1-0.4c-0.3,0-0.5,0-0.8,0.1
				c-0.3,0.1-0.5,0.2-0.7,0.3l-1-0.6c0.3-0.3,0.6-0.5,1-0.7c0.4-0.2,0.9-0.2,1.4-0.2c0.9,0,1.5,0.2,2,0.6s0.7,1,0.7,1.8v4.2H91.6z"
				/>
			<path class="st7" d="M94.5,111.3v-1.1h3.1v1.1H94.5z M96.8,116.7c-0.6,0-1-0.1-1.2-0.4c-0.3-0.3-0.4-0.7-0.4-1.3v-6.7h1.4v6.7
				c0,0.2,0,0.3,0.1,0.4c0.1,0.1,0.2,0.1,0.3,0.1h0.7v1.2H96.8z"/>
			<path class="st7" d="M99.5,108.9v-1.3h1.4v1.3H99.5z M99.5,116.6v-6.5h1.4v6.5H99.5z"/>
			<path class="st7" d="M105.6,116.7c-0.9,0-1.6-0.2-2.1-0.7c-0.5-0.5-0.7-1.2-0.7-2.1v-1.1c0-0.9,0.2-1.6,0.7-2.1
				c0.5-0.5,1.2-0.7,2.1-0.7s1.6,0.2,2.1,0.7s0.7,1.2,0.7,2.1v1.1c0,0.9-0.3,1.6-0.7,2.1C107.2,116.5,106.5,116.7,105.6,116.7z
				 M105.6,115.5c0.5,0,0.8-0.1,1.1-0.4c0.3-0.3,0.4-0.7,0.4-1.2v-1.1c0-0.5-0.1-0.9-0.4-1.2c-0.3-0.3-0.6-0.4-1.1-0.4
				c-0.5,0-0.8,0.1-1.1,0.4c-0.3,0.3-0.4,0.7-0.4,1.2v1.1c0,0.5,0.1,0.9,0.4,1.2C104.8,115.4,105.1,115.5,105.6,115.5z"/>
			<path class="st7" d="M110.4,116.6v-6.5h1.4v6.5H110.4z M114.6,116.6v-3.9c0-0.5-0.1-0.8-0.4-1.1c-0.3-0.2-0.6-0.4-1.1-0.4
				c-0.4,0-0.8,0.1-1,0.3c-0.2,0.2-0.4,0.5-0.4,0.9l-0.1-1.2c0.2-0.4,0.5-0.7,0.8-0.9c0.3-0.2,0.7-0.3,1.1-0.3
				c0.8,0,1.3,0.2,1.8,0.7c0.4,0.5,0.6,1.1,0.6,1.9v3.9H114.6z"/>
			<path class="st7" d="M121.9,116.6v-9h1.4v9H121.9z M122.6,113.1v-1.2h3.1c0.4,0,0.8-0.1,1.1-0.4c0.3-0.3,0.4-0.7,0.4-1.1
				c0-0.5-0.1-0.9-0.4-1.1c-0.3-0.3-0.6-0.4-1.1-0.4h-3.1v-1.2h3.1c0.6,0,1.1,0.1,1.5,0.3c0.4,0.2,0.8,0.6,1,1
				c0.2,0.4,0.4,0.9,0.4,1.5c0,0.6-0.1,1-0.4,1.5c-0.2,0.4-0.6,0.7-1,1c-0.4,0.2-1,0.3-1.5,0.3H122.6z"/>
			<path class="st7" d="M132.3,116.7c-0.9,0-1.6-0.2-2.1-0.7c-0.5-0.5-0.7-1.2-0.7-2.1v-1.1c0-0.9,0.2-1.6,0.7-2.1s1.2-0.7,2.1-0.7
				c0.9,0,1.6,0.2,2.1,0.7c0.5,0.5,0.7,1.2,0.7,2.1v1.1c0,0.9-0.3,1.6-0.7,2.1C133.9,116.5,133.2,116.7,132.3,116.7z M132.3,115.5
				c0.5,0,0.8-0.1,1.1-0.4c0.3-0.3,0.4-0.7,0.4-1.2v-1.1c0-0.5-0.1-0.9-0.4-1.2c-0.3-0.3-0.6-0.4-1.1-0.4c-0.5,0-0.8,0.1-1.1,0.4
				c-0.3,0.3-0.4,0.7-0.4,1.2v1.1c0,0.5,0.1,0.9,0.4,1.2C131.5,115.4,131.9,115.5,132.3,115.5z"/>
			<path class="st7" d="M137.1,116.6v-6.5h1.4v6.5H137.1z M141,111.7c-0.1-0.1-0.3-0.2-0.5-0.3s-0.4-0.1-0.6-0.1
				c-0.4,0-0.8,0.1-1,0.3c-0.2,0.2-0.4,0.5-0.4,0.9l-0.1-1.2c0.2-0.4,0.5-0.7,0.8-0.9c0.3-0.2,0.7-0.3,1.1-0.3c0.3,0,0.6,0,0.9,0.1
				c0.3,0.1,0.5,0.2,0.7,0.4L141,111.7z"/>
			<path class="st7" d="M142.5,111.3v-1.1h3.1v1.1H142.5z M144.8,116.7c-0.6,0-1-0.1-1.2-0.4c-0.3-0.3-0.4-0.7-0.4-1.3v-6.7h1.4v6.7
				c0,0.2,0,0.3,0.1,0.4c0.1,0.1,0.2,0.1,0.3,0.1h0.7v1.2H144.8z"/>
			<path class="st7" d="M149.7,116.7c-0.9,0-1.5-0.2-1.9-0.5c-0.4-0.3-0.6-0.8-0.6-1.5c0-0.6,0.2-1.1,0.6-1.4c0.4-0.3,1-0.5,1.8-0.5
				h2l0.1,1h-2.1c-0.4,0-0.6,0.1-0.8,0.2c-0.2,0.1-0.3,0.4-0.3,0.7c0,0.3,0.1,0.6,0.4,0.7c0.2,0.2,0.6,0.2,1.1,0.2
				c0.5,0,0.9-0.1,1.2-0.2c0.3-0.1,0.4-0.3,0.4-0.5l0.1,0.9c-0.1,0.2-0.3,0.3-0.4,0.4c-0.2,0.1-0.4,0.2-0.6,0.3
				C150.2,116.7,150,116.7,149.7,116.7z M151.4,116.6v-4.1c0-0.4-0.1-0.8-0.4-1c-0.2-0.2-0.6-0.4-1-0.4c-0.3,0-0.5,0-0.8,0.1
				c-0.3,0.1-0.5,0.2-0.7,0.3l-1-0.6c0.3-0.3,0.6-0.5,1-0.7c0.4-0.2,0.9-0.2,1.4-0.2c0.9,0,1.5,0.2,2,0.6s0.7,1,0.7,1.8v4.2H151.4z"
				/>
			<path class="st7" d="M156.1,107.6v7.4c0,0.2,0,0.3,0.1,0.4c0.1,0.1,0.2,0.1,0.3,0.1h0.6v1.2h-0.8c-0.5,0-0.9-0.1-1.2-0.4
				c-0.3-0.3-0.4-0.7-0.4-1.3v-7.4H156.1z"/>
		</g>
		<g>
			<path class="st8" d="M18.1,99.5l-0.7-2.4h-4.8l-0.7,2.4H8.3L13,85.7h3.8l4.8,13.8H18.1z M14.9,89.7l-1.5,4.7h3L14.9,89.7z"/>
			<path class="st8" d="M26,99.5h-3.2V89.4c1.4-0.4,3-0.6,4.8-0.6h0.7c2.6,0,3.9,1.2,3.9,3.7v7H29v-6.7c0-0.9-0.4-1.3-1.3-1.3h-0.4
				c-0.3,0-0.8,0-1.2,0.1V99.5z"/>
			<path class="st8" d="M40.4,99.5L40.4,99.5c-0.5,0-1.1,0-1.7,0h-0.7c-2.6,0-3.9-1.2-3.9-3.7v-3.3c0-2.5,1.3-3.7,3.9-3.7h0.7
				c1.8,0,3.4,0.2,4.8,0.6v10.1c0,1.3-0.3,2.2-1,2.9c-0.7,0.6-1.7,0.9-3.1,0.9H39c-1.5,0-2.8-0.1-3.8-0.3v-2.3h4
				c0.4,0,0.8-0.1,1-0.3C40.3,100.3,40.4,100,40.4,99.5z M37.4,92.9v2.7c0,0.9,0.4,1.3,1.3,1.3h0.7c0.4,0,0.7,0,1-0.1v-5.1
				c-0.4-0.1-0.8-0.1-1.2-0.1h-0.5C37.9,91.6,37.4,92,37.4,92.9z"/>
			<path class="st8" d="M55.1,92.7v2.7h-6.2v0.6c0,0.5,0.1,0.9,0.3,1.1c0.2,0.2,0.5,0.3,1,0.3h4.4v2.1c-1.2,0.2-2.5,0.3-4,0.3h-0.7
				c-1.5,0-2.5-0.3-3.2-1c-0.7-0.6-1-1.6-1-2.9v-3.2c0-1.3,0.3-2.2,1-2.9c0.7-0.6,1.7-1,3.2-1h1c1.5,0,2.5,0.3,3.2,1
				C54.8,90.4,55.1,91.4,55.1,92.7z M48.9,92.4v0.8h3v-0.5c0-0.9-0.4-1.4-1.2-1.4h-0.7c-0.4,0-0.7,0.1-0.9,0.3
				C49,91.7,48.9,92,48.9,92.4z"/>
			<path class="st8" d="M57.2,85.3h3.2v14.2h-3.2V85.3z"/>
			<path class="st8" d="M69.3,99.7h-0.5c-1.1,0-2.2-0.1-3-0.4v-2.5h3c1.2,0,1.8-0.6,1.8-1.9v-9.3H74V95c0,1.6-0.4,2.8-1.1,3.6
				C72.2,99.3,71,99.7,69.3,99.7z"/>
			<path class="st8" d="M76.2,95.9v-3.2c0-1.3,0.3-2.2,1-2.9c0.7-0.6,1.7-1,3.2-1h1.5c1.5,0,2.5,0.3,3.2,1c0.7,0.6,1,1.6,1,2.9v3.2
				c0,1.3-0.3,2.2-1,2.9c-0.7,0.6-1.7,1-3.2,1h-1.5c-1.4,0-2.5-0.3-3.2-1C76.5,98.1,76.2,97.2,76.2,95.9z M82.9,95.8V93
				c0-0.6-0.1-1-0.3-1.2c-0.2-0.2-0.5-0.4-1-0.4h-0.8c-0.5,0-0.8,0.1-1,0.4c-0.2,0.2-0.3,0.7-0.3,1.2v2.5c0,0.6,0.1,1,0.3,1.2
				c0.2,0.2,0.5,0.4,1,0.4h0.8c0.5,0,0.8-0.1,1-0.3C82.8,96.6,82.9,96.3,82.9,95.8z"/>
			<path class="st8" d="M91.4,85.3V89c0.7-0.1,1.3-0.2,1.7-0.2h0.6c2.6,0,3.9,1.2,3.9,3.7V96c0,2.5-1.3,3.7-3.9,3.7H93
				c-1.8,0-3.4-0.2-4.8-0.6V85.3H91.4z M94.4,95.7v-2.5c0-0.6-0.1-1-0.3-1.3c-0.2-0.3-0.5-0.4-1-0.4h-0.4c-0.5,0-0.9,0-1.3,0.1v5.2
				c0.3,0.1,0.7,0.1,1.2,0.1h0.5C93.9,97,94.4,96.6,94.4,95.7z"/>
			<path class="st8" d="M103.2,92.9l2.5,0.4c1.5,0.2,2.3,1.3,2.3,3v0.4c0,1-0.3,1.8-0.8,2.3c-0.5,0.5-1.4,0.8-2.7,0.8h-1.2
				c-1.2,0-2.4-0.1-3.5-0.3v-2.2h4.2c0.5,0,0.8-0.2,0.8-0.6v-0.3c0-0.4-0.2-0.6-0.7-0.7l-2.5-0.4c-1.5-0.2-2.3-1.2-2.3-3v-0.3
				c0-1,0.3-1.8,0.8-2.3c0.5-0.5,1.4-0.8,2.7-0.8h1c1.2,0,2.4,0.1,3.4,0.3v2.2h-4c-0.5,0-0.7,0.2-0.7,0.6v0.3
				C102.6,92.6,102.8,92.8,103.2,92.9z"/>
			<path class="st8" d="M121.4,95l3.8-9.3h3.5v13.8h-3.3v-6.7l-2.8,6.7h-2.6l-2.8-6.7v6.7h-3.3V85.7h3.5L121.4,95z"/>
			<path class="st8" d="M140.3,92.5v6.7c-1.4,0.3-3,0.4-4.7,0.4h-1c-1.1,0-2-0.3-2.6-0.8c-0.6-0.5-0.9-1.2-0.9-2.2V96
				c0-1,0.3-1.7,0.9-2.2c0.6-0.5,1.5-0.8,2.6-0.8h0.7c0.6,0,1.2,0,1.9,0.1v-0.7c0-0.8-0.4-1.3-1.3-1.3h-3.9v-2.1
				c1.2-0.2,2.6-0.3,4-0.3h0.5C139,88.8,140.3,90.1,140.3,92.5z M135.9,95.3h-0.6c-0.7,0-1,0.3-1,0.9v0.3c0,0.6,0.3,0.9,1,0.9h0.7
				c0.5,0,0.9,0,1.1-0.1v-1.9C136.8,95.3,136.4,95.3,135.9,95.3z"/>
			<path class="st8" d="M142.6,85.3h3.2v14.2h-3.2V85.3z"/>
			<path class="st8" d="M153.6,97.1h2.2v2.3c-0.8,0.2-1.7,0.3-2.7,0.3h-0.8c-0.9,0-1.7-0.3-2.2-0.8c-0.5-0.6-0.8-1.3-0.8-2.3v-5
				h-1.7V89h1.7v-2.7h3.2V89h3.3v2.6h-3.3V96C152.4,96.8,152.8,97.1,153.6,97.1z"/>
			<path class="st8" d="M166.7,92.5v6.7c-1.4,0.3-3,0.4-4.7,0.4h-1c-1.1,0-2-0.3-2.6-0.8c-0.6-0.5-0.9-1.2-0.9-2.2V96
				c0-1,0.3-1.7,0.9-2.2c0.6-0.5,1.5-0.8,2.6-0.8h0.7c0.6,0,1.2,0,1.9,0.1v-0.7c0-0.8-0.4-1.3-1.3-1.3h-3.9v-2.1
				c1.2-0.2,2.6-0.3,4-0.3h0.5C165.4,88.8,166.7,90.1,166.7,92.5z M162.3,95.3h-0.6c-0.7,0-1,0.3-1,0.9v0.3c0,0.6,0.3,0.9,1,0.9h0.7
				c0.5,0,0.9,0,1.1-0.1v-1.9C163.2,95.3,162.8,95.3,162.3,95.3z"/>
		</g>
	</g>
</g>
</svg>
